<svg width="24" height="24" viewBox="0 0 24 24" fill="none" xmlns="http://www.w3.org/2000/svg">
<path d="M16.5784 8.18709C16.327 8.96755 15.9896 9.70876 15.5772 10.4007C15.4867 10.5531 15.2526 10.5011 15.237 10.324C15.1227 9.00406 14.7716 7.75168 14.2284 6.60884C13.3333 4.72753 11.9132 3.14289 10.1576 2.04294C9.97284 1.92702 9.73236 2.05938 9.73601 2.27754C9.73693 2.31405 9.73693 2.35056 9.73693 2.38708C9.73693 4.61069 9.09959 6.41532 7.15284 7.92694C7.05226 8.00453 6.95716 8.08851 6.85566 8.16519C5.11008 9.63025 4 11.8265 4 14.281C4 14.7101 4.03475 15.1309 4.09967 15.5416C4.5084 18.1121 6.14518 20.2746 8.39185 21.4101C9.49553 21.9678 10.7455 22.2782 12.0696 22.2663C16.4431 22.2289 20.0614 18.5293 19.9992 14.1642C19.9635 11.6941 18.805 9.49607 17.01 8.05565C16.8601 7.93516 16.637 8.00545 16.5784 8.18709Z" fill="url(#paint0_radial_1068_4212)"/>
<defs>
<radialGradient id="paint0_radial_1068_4212" cx="0" cy="0" r="1" gradientUnits="userSpaceOnUse" gradientTransform="translate(11.749 22.2667) rotate(-90) scale(14.3059 11.2941)">
<stop stop-color="#FFA552"/>
<stop offset="1" stop-color="#FF614B"/>
</radialGradient>
</defs>
</svg>
