<svg width="24" height="24" viewBox="0 0 24 24" fill="none" xmlns="http://www.w3.org/2000/svg">
<path d="M14.7452 5.64154C15.1382 5.24841 15.6661 5.01949 16.2217 5.00119C16.7773 4.98289 17.319 5.17659 17.7371 5.543L17.8422 5.64154L18.3582 6.15758C18.7511 6.55058 18.9799 7.07827 18.9982 7.63369C19.0165 8.18911 18.823 8.73072 18.4568 9.14872L18.3582 9.25382L10.1746 17.4382C10.0588 17.5539 9.91868 17.6422 9.76435 17.6966L9.64611 17.7309L6.39513 18.4812C6.28124 18.5076 6.16269 18.5062 6.04945 18.4772C5.93621 18.4482 5.83158 18.3925 5.74434 18.3147C5.6571 18.2369 5.5898 18.1393 5.54809 18.0301C5.50638 17.9209 5.49149 17.8033 5.50465 17.6871L5.51924 17.6046L6.26885 14.3529C6.30588 14.1934 6.37822 14.0443 6.48052 13.9164L6.56154 13.8252L14.7452 5.64154ZM14.2292 8.22174L7.66734 14.7836L7.20313 16.7966L9.2162 16.3317L15.778 9.76986L14.2292 8.22174ZM16.8101 6.67362C16.6844 6.54795 16.5172 6.47245 16.3398 6.4613C16.1624 6.45015 15.9871 6.5041 15.8466 6.61304L15.778 6.67362L15.2612 7.18966L16.8101 8.73778L17.3261 8.22174C17.4518 8.09606 17.5273 7.92884 17.5385 7.75145C17.5496 7.57407 17.4957 7.39871 17.3867 7.25827L17.3261 7.18966L16.8101 6.67362Z" fill="#959595"/>
</svg>
