<svg width="24" height="24" viewBox="0 0 24 24" fill="none" xmlns="http://www.w3.org/2000/svg">
<path d="M12 20C13.5822 20 15.129 19.5308 16.4446 18.6518C17.7601 17.7727 18.7855 16.5233 19.391 15.0615C19.9965 13.5997 20.155 11.9911 19.8463 10.4393C19.5376 8.88743 18.7757 7.46197 17.6568 6.34315C16.538 5.22433 15.1126 4.4624 13.5607 4.15372C12.0089 3.84504 10.4003 4.00347 8.93853 4.60897C7.47672 5.21447 6.22729 6.23985 5.34824 7.55544C4.46919 8.87103 4 10.4178 4 12C4 13.2597 4.29024 14.4508 4.8093 15.5105C4.85966 15.6133 4.87633 15.7296 4.85332 15.8418L4.15242 19.2573C4.08026 19.6089 4.39111 19.9197 4.74272 19.8476L8.15824 19.1467C8.27038 19.1237 8.38675 19.1403 8.48955 19.1907C9.54927 19.7098 10.7412 20 12 20Z" fill="#AEABFF"/>
</svg>
