<svg width="24" height="24" viewBox="0 0 24 24" fill="none" xmlns="http://www.w3.org/2000/svg">
<path d="M17.3846 6.07617H6.61538C5.72323 6.07617 5 6.7994 5 7.69156V17.3839C5 18.276 5.72323 18.9993 6.61538 18.9993H17.3846C18.2768 18.9993 19 18.276 19 17.3839V7.69156C19 6.7994 18.2768 6.07617 17.3846 6.07617Z" stroke="#616161" stroke-width="1.2" stroke-linejoin="round"/>
<path d="M13.3468 11.9992C13.7928 11.9992 14.1544 11.6376 14.1544 11.1915C14.1544 10.7454 13.7928 10.3838 13.3468 10.3838C12.9007 10.3838 12.5391 10.7454 12.5391 11.1915C12.5391 11.6376 12.9007 11.9992 13.3468 11.9992Z" fill="#616161"/>
<path d="M16.0382 11.9992C16.4842 11.9992 16.8459 11.6376 16.8459 11.1915C16.8459 10.7454 16.4842 10.3838 16.0382 10.3838C15.5921 10.3838 15.2305 10.7454 15.2305 11.1915C15.2305 11.6376 15.5921 11.9992 16.0382 11.9992Z" fill="#616161"/>
<path d="M13.3468 14.6916C13.7928 14.6916 14.1544 14.3299 14.1544 13.8839C14.1544 13.4378 13.7928 13.0762 13.3468 13.0762C12.9007 13.0762 12.5391 13.4378 12.5391 13.8839C12.5391 14.3299 12.9007 14.6916 13.3468 14.6916Z" fill="#616161"/>
<path d="M16.0382 14.6916C16.4842 14.6916 16.8459 14.3299 16.8459 13.8839C16.8459 13.4378 16.4842 13.0762 16.0382 13.0762C15.5921 13.0762 15.2305 13.4378 15.2305 13.8839C15.2305 14.3299 15.5921 14.6916 16.0382 14.6916Z" fill="#616161"/>
<path d="M7.96199 14.6916C8.40807 14.6916 8.76968 14.3299 8.76968 13.8839C8.76968 13.4378 8.40807 13.0762 7.96199 13.0762C7.51591 13.0762 7.1543 13.4378 7.1543 13.8839C7.1543 14.3299 7.51591 14.6916 7.96199 14.6916Z" fill="#616161"/>
<path d="M10.6534 14.6916C11.0995 14.6916 11.4611 14.3299 11.4611 13.8839C11.4611 13.4378 11.0995 13.0762 10.6534 13.0762C10.2073 13.0762 9.8457 13.4378 9.8457 13.8839C9.8457 14.3299 10.2073 14.6916 10.6534 14.6916Z" fill="#616161"/>
<path d="M7.96199 17.3849C8.40807 17.3849 8.76968 17.0233 8.76968 16.5772C8.76968 16.1311 8.40807 15.7695 7.96199 15.7695C7.51591 15.7695 7.1543 16.1311 7.1543 16.5772C7.1543 17.0233 7.51591 17.3849 7.96199 17.3849Z" fill="#616161"/>
<path d="M10.6534 17.3849C11.0995 17.3849 11.4611 17.0233 11.4611 16.5772C11.4611 16.1311 11.0995 15.7695 10.6534 15.7695C10.2073 15.7695 9.8457 16.1311 9.8457 16.5772C9.8457 17.0233 10.2073 17.3849 10.6534 17.3849Z" fill="#616161"/>
<path d="M13.3468 17.3849C13.7928 17.3849 14.1544 17.0233 14.1544 16.5772C14.1544 16.1311 13.7928 15.7695 13.3468 15.7695C12.9007 15.7695 12.5391 16.1311 12.5391 16.5772C12.5391 17.0233 12.9007 17.3849 13.3468 17.3849Z" fill="#616161"/>
<path d="M7.69336 5V6.07692M16.3087 5V6.07692" stroke="#616161" stroke-width="1.2" stroke-linecap="round" stroke-linejoin="round"/>
<path d="M19 8.76953H5" stroke="#616161" stroke-width="1.2" stroke-linejoin="round"/>
</svg>
