<svg width="170" height="189" viewBox="0 0 170 189" fill="none" xmlns="http://www.w3.org/2000/svg">
<path d="M49.8144 64.8391C47.9097 66.9832 46.9955 69.8129 46.0378 72.4577C45.3412 74.4058 44.6773 76.3648 43.9481 78.2912C43.2297 80.196 42.5006 82.1006 41.7823 83.9943C40.9768 86.1166 40.1714 88.228 39.377 90.3503C38.5171 92.6141 37.6573 94.878 36.8084 97.1309C35.9268 99.46 35.0453 101.789 34.1527 104.129C33.2712 106.458 32.3896 108.787 31.5081 111.116C30.6592 113.369 29.7992 115.622 28.9503 117.875C28.1559 119.976 27.3505 122.087 26.5559 124.188C25.8376 126.07 25.1302 127.954 24.4118 129.836C23.8133 131.426 23.2037 133.015 22.6052 134.603C22.1371 135.823 21.6801 137.052 21.212 138.271C20.9183 139.055 20.6244 139.839 20.3196 140.622C20.2216 140.894 20.1128 141.155 20.0148 141.428C19.0135 144.072 19.9495 146.673 21.7998 148.241C23.3561 150.079 25.9683 151.027 28.613 150.026C28.885 149.928 29.1463 149.819 29.4184 149.721C30.202 149.428 30.9856 149.133 31.7693 148.828C32.9883 148.36 34.218 147.904 35.437 147.435C37.0261 146.837 38.615 146.227 40.2041 145.629C42.0869 144.91 43.9699 144.203 45.8528 143.485C47.9533 142.69 50.0647 141.895 52.1653 141.09C54.4182 140.241 56.6711 139.382 58.924 138.533C61.2532 137.651 63.5823 136.769 65.9114 135.887C68.2404 135.006 70.5695 134.125 72.9095 133.232C75.1733 132.372 77.4372 131.513 79.6901 130.664C81.8124 129.858 83.9238 129.053 86.0461 128.258C87.9507 127.54 89.8555 126.81 91.7492 126.092C93.6865 125.363 95.6455 124.699 97.5829 124.002C100.228 123.045 103.057 122.131 105.201 120.226C106.78 118.833 107.52 117.2 107.748 115.459C108.086 112.836 107.237 109.984 106.225 107.372C105.452 105.359 104.537 103.422 103.482 101.528C101.653 98.241 99.531 95.1174 97.2346 92.1462C94.5462 88.6634 91.6186 85.3766 88.5059 82.2638C88.3861 82.1441 88.2555 82.0244 88.1358 81.8937C88.0161 81.774 87.8963 81.6434 87.7658 81.5237C84.653 78.411 81.3661 75.4833 77.8834 72.795C74.9121 70.4986 71.7885 68.3762 68.5016 66.5478C66.6079 65.5029 64.6706 64.5778 62.6571 63.8051C60.0451 62.8039 57.1935 61.9439 54.5706 62.2814C52.84 62.51 51.2075 63.2609 49.8144 64.8391Z" fill="url(#paint0_linear_1674_8494)"/>
<path d="M63.8538 64.3166C63.4511 64.1533 63.0593 63.9574 62.6567 63.8051C60.0445 62.8039 57.1931 61.9439 54.57 62.2814C52.8396 62.51 51.207 63.25 49.803 64.8282C47.8983 66.9723 46.9841 69.802 46.0264 72.4468C45.3297 74.3949 44.6659 76.354 43.9367 78.2803C43.4034 79.6735 42.881 81.0775 42.3477 82.4707C43.3489 102.769 51.7186 120.618 67.2277 135.365C69.1107 134.647 71.0044 133.939 72.8872 133.221C75.1511 132.361 77.4149 131.502 79.6678 130.653C81.7901 129.847 83.9015 129.042 86.0238 128.247C86.9489 127.899 87.8741 127.54 88.8101 127.192C67.7284 110.79 59.5438 90.1654 63.8538 64.3166Z" fill="url(#paint1_linear_1674_8494)"/>
<path d="M32.2044 109.255C31.9651 109.876 31.7365 110.496 31.497 111.127C30.6481 113.38 29.7883 115.633 28.9393 117.886C28.1448 119.987 27.3395 122.098 26.545 124.199C25.8266 126.081 25.1192 127.965 24.4009 129.847C23.8023 131.436 23.1928 133.026 22.5942 134.614C22.3112 135.365 22.0283 136.116 21.7344 136.878C24.205 141.199 27.1762 145.334 30.6372 149.253C31.0073 149.111 31.3773 148.97 31.7474 148.828C32.9664 148.36 34.1962 147.904 35.4151 147.435C37.0042 146.837 38.5932 146.227 40.1822 145.629C42.065 144.91 43.948 144.203 45.8308 143.485C47.1913 142.961 48.5626 142.45 49.9231 141.928C39.9318 132.492 34.0438 121.663 32.2044 109.255Z" fill="url(#paint2_linear_1674_8494)" fill-opacity="0.84"/>
<path d="M101.784 115.445C105.707 111.522 98.3232 97.7778 85.2918 84.7463C72.2604 71.7149 58.5161 64.3312 54.593 68.2541C50.67 72.1772 58.0538 85.9215 71.0852 98.953C84.1166 111.984 97.861 119.368 101.784 115.445Z" fill="url(#paint3_linear_1674_8494)"/>
<g style="mix-blend-mode:multiply" opacity="0.3">
<path d="M49.8144 64.8391C47.9097 66.9832 46.9955 69.8129 46.0378 72.4577C45.3412 74.4058 44.6773 76.3648 43.9481 78.2912C43.2297 80.196 42.5006 82.1006 41.7823 83.9943C40.9768 86.1166 40.1714 88.228 39.377 90.3503C38.5171 92.6141 37.6573 94.878 36.8084 97.1309C35.9268 99.46 35.0453 101.789 34.1527 104.129C33.2712 106.458 32.3896 108.787 31.5081 111.116C30.6592 113.369 29.7992 115.622 28.9503 117.875C28.1559 119.976 27.3505 122.087 26.5559 124.188C25.8376 126.07 25.1302 127.954 24.4118 129.836C23.8133 131.426 23.2037 133.015 22.6052 134.603C22.1371 135.823 21.6801 137.052 21.212 138.271C20.9183 139.055 20.6244 139.839 20.3196 140.622C20.2216 140.894 20.1128 141.155 20.0148 141.428C19.0135 144.072 19.9495 146.673 21.7998 148.241C23.3561 150.079 25.9683 151.027 28.613 150.026C28.885 149.928 29.1463 149.819 29.4184 149.721C30.202 149.428 30.9856 149.133 31.7693 148.828C32.9883 148.36 34.218 147.904 35.437 147.435C37.0261 146.837 38.615 146.227 40.2041 145.629C42.0869 144.91 43.9699 144.203 45.8528 143.485C47.9533 142.69 50.0647 141.895 52.1653 141.09C54.4182 140.241 56.6711 139.382 58.924 138.533C61.2532 137.651 63.5823 136.769 65.9114 135.887C68.2404 135.006 70.5695 134.125 72.9095 133.232C75.1733 132.372 77.4372 131.513 79.6901 130.664C81.8124 129.858 83.9238 129.053 86.0461 128.258C87.9507 127.54 89.8555 126.81 91.7492 126.092C93.6865 125.363 95.6455 124.699 97.5829 124.002C100.228 123.045 103.057 122.131 105.201 120.226C106.78 118.833 107.52 117.2 107.748 115.459C108.086 112.836 107.237 109.984 106.225 107.372C105.452 105.359 104.537 103.422 103.482 101.528C101.653 98.241 99.531 95.1174 97.2346 92.1462C94.5462 88.6634 91.6186 85.3766 88.5059 82.2638C88.3861 82.1441 88.2555 82.0244 88.1358 81.8937C88.0161 81.774 87.8963 81.6434 87.7658 81.5237C84.653 78.411 81.3661 75.4833 77.8834 72.795C74.9121 70.4986 71.7885 68.3762 68.5016 66.5478C66.6079 65.5029 64.6706 64.5778 62.6571 63.8051C60.0451 62.8039 57.1935 61.9439 54.5706 62.2814C52.84 62.51 51.2075 63.2609 49.8144 64.8391Z" fill="url(#paint4_linear_1674_8494)"/>
<path d="M63.8538 64.3166C63.4511 64.1533 63.0593 63.9574 62.6567 63.8051C60.0445 62.8039 57.1931 61.9439 54.57 62.2814C52.8396 62.51 51.207 63.25 49.803 64.8282C47.8983 66.9723 46.9841 69.802 46.0264 72.4468C45.3297 74.3949 44.6659 76.354 43.9367 78.2803C43.4034 79.6735 42.881 81.0775 42.3477 82.4707C43.3489 102.769 51.7186 120.618 67.2277 135.365C69.1107 134.647 71.0044 133.939 72.8872 133.221C75.1511 132.361 77.4149 131.502 79.6678 130.653C81.7901 129.847 83.9015 129.042 86.0238 128.247C86.9489 127.899 87.8741 127.54 88.8101 127.192C67.7284 110.79 59.5438 90.1654 63.8538 64.3166Z" fill="url(#paint5_linear_1674_8494)"/>
<path d="M32.2044 109.255C31.9651 109.876 31.7365 110.496 31.497 111.127C30.6481 113.38 29.7883 115.633 28.9393 117.886C28.1448 119.987 27.3395 122.098 26.545 124.199C25.8266 126.081 25.1192 127.965 24.4009 129.847C23.8023 131.436 23.1928 133.026 22.5942 134.614C22.3112 135.365 22.0283 136.116 21.7344 136.878C24.205 141.199 27.1762 145.334 30.6372 149.253C31.0073 149.111 31.3773 148.97 31.7474 148.828C32.9664 148.36 34.1962 147.904 35.4151 147.435C37.0042 146.837 38.5932 146.227 40.1822 145.629C42.065 144.91 43.948 144.203 45.8308 143.485C47.1913 142.961 48.5626 142.45 49.9231 141.928C39.9318 132.492 34.0438 121.663 32.2044 109.255Z" fill="url(#paint6_linear_1674_8494)" fill-opacity="0.84"/>
<path d="M101.784 115.445C105.707 111.522 98.3232 97.7778 85.2918 84.7463C72.2604 71.7149 58.5161 64.3312 54.593 68.2541C50.67 72.1772 58.0538 85.9215 71.0852 98.953C84.1166 111.984 97.861 119.368 101.784 115.445Z" fill="url(#paint7_linear_1674_8494)"/>
</g>
<g opacity="0.6">
<path d="M158.753 107.626V114.485" stroke="#7191FF" stroke-opacity="0.8" stroke-width="3" stroke-linecap="round"/>
<path d="M162.182 111.056H155.324" stroke="#7191FF" stroke-opacity="0.8" stroke-width="3" stroke-linecap="round"/>
</g>
<path d="M58.6421 41.5618L53.792 46.412" stroke="#7191FF" stroke-opacity="0.9" stroke-width="3" stroke-linecap="round"/>
<path d="M58.6421 46.412L53.792 41.5618" stroke="#7191FF" stroke-opacity="0.9" stroke-width="3" stroke-linecap="round"/>
<path d="M103.957 61.7626C104.97 61.7626 105.791 60.9412 105.791 59.928C105.791 58.9149 104.97 58.0935 103.957 58.0935C102.943 58.0935 102.122 58.9149 102.122 59.928C102.122 60.9412 102.943 61.7626 103.957 61.7626Z" stroke="#7191FF" stroke-width="3"/>
<path d="M50.1441 22.9317C52.0016 22.9317 53.5074 21.4259 53.5074 19.5684C53.5074 17.7109 52.0016 16.2051 50.1441 16.2051C48.2866 16.2051 46.7808 17.7109 46.7808 19.5684C46.7808 21.4259 48.2866 22.9317 50.1441 22.9317Z" stroke="#7191FF" stroke-opacity="0.4" stroke-width="2.5"/>
<path d="M166.942 62.3741C167.956 62.3741 168.777 61.5528 168.777 60.5396C168.777 59.5264 167.956 58.7051 166.942 58.7051C165.929 58.7051 165.108 59.5264 165.108 60.5396C165.108 61.5528 165.929 62.3741 166.942 62.3741Z" stroke="#7191FF" stroke-width="2"/>
<path opacity="0.7" d="M103.345 4.89196C104.358 4.89196 105.18 4.07062 105.18 3.05743C105.18 2.04425 104.358 1.2229 103.345 1.2229C102.332 1.2229 101.511 2.04425 101.511 3.05743C101.511 4.07062 102.332 4.89196 103.345 4.89196Z" stroke="#7191FF" stroke-width="2"/>
<path opacity="0.4" d="M130.864 43.5063C132.214 43.5063 133.31 42.4112 133.31 41.0603C133.31 39.7094 132.214 38.6143 130.864 38.6143C129.513 38.6143 128.417 39.7094 128.417 41.0603C128.417 42.4112 129.513 43.5063 130.864 43.5063Z" fill="#7191FF"/>
<path opacity="0.2" d="M147.374 130.863C148.387 130.863 149.209 130.042 149.209 129.029C149.209 128.016 148.387 127.194 147.374 127.194C146.361 127.194 145.54 128.016 145.54 129.029C145.54 130.042 146.361 130.863 147.374 130.863Z" fill="#7191FF"/>
<path d="M126.583 110.072C127.596 110.072 128.417 109.251 128.417 108.237C128.417 107.224 127.596 106.403 126.583 106.403C125.569 106.403 124.748 107.224 124.748 108.237C124.748 109.251 125.569 110.072 126.583 110.072Z" fill="#7191FF"/>
<path d="M81.2859 22.9687C81.8519 21.9968 83.2562 21.9968 83.8222 22.9687L85.5893 26.0025C85.7966 26.3585 86.1441 26.6111 86.5469 26.6983L89.9783 27.4413C91.0775 27.6794 91.5115 29.0148 90.762 29.8536L88.4227 32.4716C88.1482 32.7789 88.0155 33.1874 88.057 33.5974L88.4106 37.0904C88.524 38.2095 87.3879 39.0348 86.3586 38.5812L83.1459 37.1654C82.7688 36.9993 82.3393 36.9993 81.9622 37.1654L78.7495 38.5812C77.7202 39.0348 76.5841 38.2095 76.6975 37.0904L77.0511 33.5974C77.0927 33.1874 76.96 32.7789 76.6854 32.4716L74.3461 29.8536C73.5966 29.0148 74.0306 27.6794 75.1298 27.4413L78.5613 26.6983C78.964 26.6111 79.3115 26.3585 79.5188 26.0025L81.2859 22.9687Z" fill="#7191FF" fill-opacity="0.6"/>
<path d="M130.373 65.1429C131.411 63.3609 133.985 63.3609 135.023 65.1429L137.438 69.2906C137.819 69.9433 138.456 70.4062 139.195 70.5661L143.886 71.5821C145.902 72.0184 146.697 74.4668 145.323 76.0045L142.125 79.5838C141.621 80.1471 141.378 80.8961 141.454 81.6477L141.938 86.4233C142.145 88.4749 140.063 89.988 138.176 89.1565L133.783 87.2208C133.092 86.9163 132.304 86.9163 131.613 87.2208L127.22 89.1565C125.333 89.988 123.251 88.4749 123.458 86.4233L123.942 81.6477C124.018 80.8961 123.775 80.1471 123.271 79.5838L120.073 76.0045C118.699 74.4668 119.495 72.0184 121.51 71.5821L126.201 70.5661C126.94 70.4062 127.577 69.9433 127.957 69.2906L130.373 65.1429Z" fill="url(#paint8_linear_1674_8494)"/>
<path d="M137.756 16.4908C138.229 15.6808 139.398 15.6808 139.87 16.4908L140.716 17.9441C140.89 18.2408 141.178 18.4513 141.515 18.524L143.159 18.8799C144.075 19.0782 144.437 20.1912 143.812 20.8901L142.691 22.1443C142.461 22.4003 142.351 22.7408 142.386 23.0824L142.556 24.7557C142.65 25.6883 141.703 26.3761 140.846 25.9982L139.306 25.3199C138.992 25.1815 138.635 25.1815 138.32 25.3199L136.78 25.9982C135.923 26.3761 134.977 25.6883 135.071 24.7557L135.241 23.0824C135.275 22.7408 135.165 22.4003 134.935 22.1443L133.815 20.8901C133.19 20.1912 133.552 19.0782 134.468 18.8799L136.111 18.524C136.448 18.4513 136.736 18.2408 136.91 17.9441L137.756 16.4908Z" fill="url(#paint9_linear_1674_8494)"/>
<g filter="url(#filter0_f_1674_8494)">
<path d="M61.7626 173.669C87.7677 173.669 108.849 173.122 108.849 172.446C108.849 171.771 87.7677 171.223 61.7626 171.223C35.7575 171.223 14.6763 171.771 14.6763 172.446C14.6763 173.122 35.7575 173.669 61.7626 173.669Z" fill="#7191FF" fill-opacity="0.4"/>
</g>
<defs>
<filter id="filter0_f_1674_8494" x="2.67627" y="159.223" width="118.173" height="26.4458" filterUnits="userSpaceOnUse" color-interpolation-filters="sRGB">
<feFlood flood-opacity="0" result="BackgroundImageFix"/>
<feBlend mode="normal" in="SourceGraphic" in2="BackgroundImageFix" result="shape"/>
<feGaussianBlur stdDeviation="6" result="effect1_foregroundBlur_1674_8494"/>
</filter>
<linearGradient id="paint0_linear_1674_8494" x1="56.6114" y1="140.058" x2="36.4767" y2="98.1556" gradientUnits="userSpaceOnUse">
<stop stop-color="#E3E9FF"/>
<stop offset="0.276154" stop-color="#D5DEFF"/>
<stop offset="1" stop-color="#EAEFFF"/>
</linearGradient>
<linearGradient id="paint1_linear_1674_8494" x1="49.5368" y1="68.7698" x2="74.5693" y2="133.527" gradientUnits="userSpaceOnUse">
<stop stop-color="#E9EEFF"/>
<stop offset="0.299817" stop-color="#FAFBFF"/>
<stop offset="1" stop-color="#FAFBFF" stop-opacity="0.7"/>
</linearGradient>
<linearGradient id="paint2_linear_1674_8494" x1="25.5931" y1="121.011" x2="40.8303" y2="145.499" gradientUnits="userSpaceOnUse">
<stop stop-color="#F6F8FE" stop-opacity="0.7"/>
<stop offset="0.379698" stop-color="#FAFCFF"/>
<stop offset="1" stop-color="#FAFCFF" stop-opacity="0.9"/>
</linearGradient>
<linearGradient id="paint3_linear_1674_8494" x1="52.2578" y1="122.1" x2="78.3786" y2="79.1091" gradientUnits="userSpaceOnUse">
<stop stop-color="#8CA9FF"/>
<stop offset="1" stop-color="#E6EBFF"/>
</linearGradient>
<linearGradient id="paint4_linear_1674_8494" x1="56.6114" y1="140.058" x2="36.4767" y2="98.1556" gradientUnits="userSpaceOnUse">
<stop stop-color="#E3E9FF"/>
<stop offset="0.276154" stop-color="#D5DEFF"/>
<stop offset="1" stop-color="#EAEFFF"/>
</linearGradient>
<linearGradient id="paint5_linear_1674_8494" x1="49.5368" y1="68.7698" x2="74.5693" y2="133.527" gradientUnits="userSpaceOnUse">
<stop stop-color="#E9EEFF"/>
<stop offset="0.299817" stop-color="#FAFBFF"/>
<stop offset="1" stop-color="#FAFBFF" stop-opacity="0.7"/>
</linearGradient>
<linearGradient id="paint6_linear_1674_8494" x1="25.5931" y1="121.011" x2="40.8303" y2="145.499" gradientUnits="userSpaceOnUse">
<stop stop-color="#F6F8FE" stop-opacity="0.7"/>
<stop offset="0.379698" stop-color="#FAFCFF"/>
<stop offset="1" stop-color="#FAFCFF" stop-opacity="0.9"/>
</linearGradient>
<linearGradient id="paint7_linear_1674_8494" x1="52.2578" y1="122.1" x2="78.3786" y2="79.1091" gradientUnits="userSpaceOnUse">
<stop stop-color="#8CA9FF"/>
<stop offset="1" stop-color="#E6EBFF"/>
</linearGradient>
<linearGradient id="paint8_linear_1674_8494" x1="122.302" y1="75.2158" x2="143.094" y2="70.9352" gradientUnits="userSpaceOnUse">
<stop stop-color="#7191FF"/>
<stop offset="1" stop-color="#7191FF" stop-opacity="0.8"/>
</linearGradient>
<linearGradient id="paint9_linear_1674_8494" x1="135.144" y1="23.2375" x2="142.482" y2="18.9569" gradientUnits="userSpaceOnUse">
<stop stop-color="#7191FF"/>
<stop offset="1" stop-color="#7191FF" stop-opacity="0.8"/>
</linearGradient>
</defs>
</svg>
