<svg width="170" height="123" viewBox="0 0 170 123" fill="none" xmlns="http://www.w3.org/2000/svg">
<g clip-path="url(#clip0_1674_8624)">
<path fill-rule="evenodd" clip-rule="evenodd" d="M58.9642 81.1516C76.6116 83.2184 92.1116 69.4278 92.1116 51.6598C92.1116 35.2605 78.8174 21.9663 62.4182 21.9663H29.6935C13.2942 21.9663 1.43366e-06 35.2605 0 51.6598C-1.55333e-06 69.4278 15.5 83.2184 33.1474 81.1516L38.8126 80.488L44.3286 92.1653C45.0179 93.6244 47.0937 93.6244 47.7829 92.1653L53.299 80.488L58.9642 81.1516Z" fill="url(#paint0_radial_1674_8624)" fill-opacity="0.6"/>
<g filter="url(#filter0_d_1674_8624)">
<path d="M69.7191 42.9775H22.9213C21.8664 42.9775 21.0112 43.8327 21.0112 44.8877V47.7528C21.0112 48.8077 21.8664 49.6629 22.9213 49.6629H69.7191C70.774 49.6629 71.6292 48.8077 71.6292 47.7528V44.8877C71.6292 43.8327 70.774 42.9775 69.7191 42.9775Z" fill="url(#paint1_linear_1674_8624)"/>
</g>
<g filter="url(#filter1_d_1674_8624)">
<path d="M45.8427 54.438H22.9213C21.8664 54.438 21.0112 55.2932 21.0112 56.3481V59.2133C21.0112 60.2682 21.8664 61.1234 22.9213 61.1234H45.8427C46.8976 61.1234 47.7528 60.2682 47.7528 59.2133V56.3481C47.7528 55.2932 46.8976 54.438 45.8427 54.438Z" fill="url(#paint2_linear_1674_8624)"/>
</g>
<g filter="url(#filter2_d_1674_8624)">
<path d="M57.3036 54.438H54.4384C53.3835 54.438 52.5283 55.2932 52.5283 56.3481V59.2133C52.5283 60.2682 53.3835 61.1234 54.4384 61.1234H57.3036C58.3585 61.1234 59.2137 60.2682 59.2137 59.2133V56.3481C59.2137 55.2932 58.3585 54.438 57.3036 54.438Z" fill="url(#paint3_linear_1674_8624)"/>
</g>
<path fill-rule="evenodd" clip-rule="evenodd" d="M131.85 68.1163C152.161 70.495 170 54.6234 170 34.1742C170 15.3003 154.7 6.2802e-06 135.826 3.29259e-06L98.1626 0C79.2891 -1.65e-06 63.9888 15.3003 63.9888 34.1742C63.9888 54.6234 81.8277 70.495 102.138 68.1163L108.659 67.3528L115.268 81.3438C115.956 82.8028 118.033 82.8028 118.721 81.3438L125.33 67.3528L131.85 68.1163Z" fill="url(#paint4_radial_1674_8624)" fill-opacity="0.7"/>
<mask id="mask0_1674_8624" style="mask-type:luminance" maskUnits="userSpaceOnUse" x="63" y="0" width="107" height="83">
<path fill-rule="evenodd" clip-rule="evenodd" d="M131.85 68.1163C152.161 70.495 170 54.6234 170 34.1742C170 15.3003 154.7 6.2802e-06 135.826 3.29259e-06L98.1626 0C79.2891 -1.65e-06 63.9888 15.3003 63.9888 34.1742C63.9888 54.6234 81.8277 70.495 102.138 68.1163L108.659 67.3528L115.268 81.3438C115.956 82.8028 118.033 82.8028 118.721 81.3438L125.33 67.3528L131.85 68.1163Z" fill="white"/>
</mask>
<g mask="url(#mask0_1674_8624)">
<path d="M108.659 67.3527L109.522 66.9447L109.229 66.3243L108.547 66.4041L108.659 67.3527ZM125.33 67.3527L125.442 66.4041L124.76 66.3243L124.467 66.9447L125.33 67.3527ZM169.045 34.1742C169.045 54.052 151.705 69.4799 131.962 67.1677L131.739 69.0649C152.618 71.5101 170.955 55.1949 170.955 34.1742H169.045ZM135.826 0.955034C154.172 0.955044 169.045 15.8277 169.045 34.1742H170.955C170.955 14.7728 155.227 -0.955071 135.826 -0.955075V0.955034ZM98.1626 0.955034H135.826V-0.955075L98.1626 -0.955078V0.955034ZM64.9438 34.1742C64.9438 15.8277 79.8165 0.955032 98.1626 0.955034V-0.955078C78.7616 -0.955078 63.0337 14.7728 63.0337 34.1742H64.9438ZM102.027 67.1677C82.2842 69.4799 64.9438 54.052 64.9438 34.1742H63.0337C63.0337 55.1949 81.3712 71.5101 102.249 69.0649L102.027 67.1677ZM108.547 66.4041L102.027 67.1677L102.249 69.0649L108.769 68.3013L108.547 66.4041ZM116.131 80.9358L109.522 66.9447L107.794 67.7606L114.403 81.7517L116.131 80.9358ZM117.858 80.9358C117.513 81.6654 116.476 81.6654 116.131 80.9358L114.403 81.7517C115.438 83.9402 118.551 83.9402 119.585 81.7517L117.858 80.9358ZM124.467 66.9447L117.858 80.9358L119.585 81.7517L126.194 67.7606L124.467 66.9447ZM131.962 67.1677L125.442 66.4041L125.219 68.3013L131.739 69.0649L131.962 67.1677Z" fill="url(#paint5_linear_1674_8624)"/>
</g>
<g filter="url(#filter3_d_1674_8624)">
<path d="M90.1744 31.5171H88.8202C87.2379 31.5171 85.9551 32.7999 85.9551 34.3823V35.7364C85.9551 37.3188 87.2379 38.6016 88.8202 38.6016H90.1744C91.7568 38.6016 93.0396 37.3188 93.0396 35.7364V34.3823C93.0396 32.7999 91.7568 31.5171 90.1744 31.5171Z" fill="white"/>
<path d="M103.944 31.5171H102.59C101.008 31.5171 99.7251 32.7999 99.7251 34.3823V35.7364C99.7251 37.3188 101.008 38.6016 102.59 38.6016H103.944C105.527 38.6016 106.81 37.3188 106.81 35.7364V34.3823C106.81 32.7999 105.527 31.5171 103.944 31.5171Z" fill="white"/>
<path d="M117.714 31.5171H116.36C114.778 31.5171 113.495 32.7999 113.495 34.3823V35.7364C113.495 37.3188 114.778 38.6016 116.36 38.6016H117.714C119.297 38.6016 120.58 37.3188 120.58 35.7364V34.3823C120.58 32.7999 119.297 31.5171 117.714 31.5171Z" fill="white"/>
<path d="M131.484 31.5171H130.13C128.548 31.5171 127.265 32.7999 127.265 34.3823V35.7364C127.265 37.3188 128.548 38.6016 130.13 38.6016H131.484C133.067 38.6016 134.35 37.3188 134.35 35.7364V34.3823C134.35 32.7999 133.067 31.5171 131.484 31.5171Z" fill="white"/>
<path d="M145.255 31.5171H143.9C142.318 31.5171 141.035 32.7999 141.035 34.3823V35.7364C141.035 37.3188 142.318 38.6016 143.9 38.6016H145.255C146.837 38.6016 148.12 37.3188 148.12 35.7364V34.3823C148.12 32.7999 146.837 31.5171 145.255 31.5171Z" fill="white"/>
</g>
<g filter="url(#filter4_f_1674_8624)">
<path d="M85.955 112.697C112.328 112.697 133.708 112.269 133.708 111.742C133.708 111.214 112.328 110.787 85.955 110.787C59.5818 110.787 38.2021 111.214 38.2021 111.742C38.2021 112.269 59.5818 112.697 85.955 112.697Z" fill="#7191FF" fill-opacity="0.3"/>
</g>
<g style="mix-blend-mode:multiply" opacity="0.4">
<path fill-rule="evenodd" clip-rule="evenodd" d="M58.9642 81.1516C76.6116 83.2184 92.1116 69.4278 92.1116 51.6598C92.1116 35.2605 78.8174 21.9663 62.4182 21.9663H29.6935C13.2942 21.9663 1.43366e-06 35.2605 0 51.6598C-1.55333e-06 69.4278 15.5 83.2184 33.1474 81.1516L38.8126 80.488L44.3286 92.1653C45.0179 93.6244 47.0937 93.6244 47.7829 92.1653L53.299 80.488L58.9642 81.1516Z" fill="url(#paint6_radial_1674_8624)" fill-opacity="0.6"/>
<g filter="url(#filter5_d_1674_8624)">
<path d="M69.7191 42.9775H22.9213C21.8664 42.9775 21.0112 43.8327 21.0112 44.8877V47.7528C21.0112 48.8077 21.8664 49.6629 22.9213 49.6629H69.7191C70.774 49.6629 71.6292 48.8077 71.6292 47.7528V44.8877C71.6292 43.8327 70.774 42.9775 69.7191 42.9775Z" fill="url(#paint7_linear_1674_8624)"/>
</g>
<g filter="url(#filter6_d_1674_8624)">
<path d="M45.8427 54.438H22.9213C21.8664 54.438 21.0112 55.2932 21.0112 56.3481V59.2133C21.0112 60.2682 21.8664 61.1234 22.9213 61.1234H45.8427C46.8976 61.1234 47.7528 60.2682 47.7528 59.2133V56.3481C47.7528 55.2932 46.8976 54.438 45.8427 54.438Z" fill="url(#paint8_linear_1674_8624)"/>
</g>
<g filter="url(#filter7_d_1674_8624)">
<path d="M57.3036 54.438H54.4384C53.3835 54.438 52.5283 55.2932 52.5283 56.3481V59.2133C52.5283 60.2682 53.3835 61.1234 54.4384 61.1234H57.3036C58.3585 61.1234 59.2137 60.2682 59.2137 59.2133V56.3481C59.2137 55.2932 58.3585 54.438 57.3036 54.438Z" fill="url(#paint9_linear_1674_8624)"/>
</g>
<path fill-rule="evenodd" clip-rule="evenodd" d="M131.85 68.1163C152.161 70.495 170 54.6234 170 34.1742C170 15.3003 154.7 6.2802e-06 135.826 3.29259e-06L98.1626 0C79.2891 -1.65e-06 63.9888 15.3003 63.9888 34.1742C63.9888 54.6234 81.8277 70.495 102.138 68.1163L108.659 67.3528L115.268 81.3438C115.956 82.8028 118.033 82.8028 118.721 81.3438L125.33 67.3528L131.85 68.1163Z" fill="url(#paint10_radial_1674_8624)" fill-opacity="0.7"/>
<mask id="mask1_1674_8624" style="mask-type:luminance" maskUnits="userSpaceOnUse" x="63" y="0" width="107" height="83">
<g style="mix-blend-mode:multiply" opacity="0.4">
<path fill-rule="evenodd" clip-rule="evenodd" d="M131.85 68.1163C152.161 70.495 170 54.6234 170 34.1742C170 15.3003 154.7 6.2802e-06 135.826 3.29259e-06L98.1626 0C79.2891 -1.65e-06 63.9888 15.3003 63.9888 34.1742C63.9888 54.6234 81.8277 70.495 102.138 68.1163L108.659 67.3528L115.268 81.3438C115.956 82.8028 118.033 82.8028 118.721 81.3438L125.33 67.3528L131.85 68.1163Z" fill="white"/>
</g>
</mask>
<g mask="url(#mask1_1674_8624)">
<path d="M108.659 67.3527L109.522 66.9447L109.229 66.3243L108.547 66.4041L108.659 67.3527ZM125.33 67.3527L125.442 66.4041L124.76 66.3243L124.467 66.9447L125.33 67.3527ZM169.045 34.1742C169.045 54.052 151.705 69.4799 131.962 67.1677L131.739 69.0649C152.618 71.5101 170.955 55.1949 170.955 34.1742H169.045ZM135.826 0.955034C154.172 0.955044 169.045 15.8277 169.045 34.1742H170.955C170.955 14.7728 155.227 -0.955071 135.826 -0.955075V0.955034ZM98.1626 0.955034H135.826V-0.955075L98.1626 -0.955078V0.955034ZM64.9438 34.1742C64.9438 15.8277 79.8165 0.955032 98.1626 0.955034V-0.955078C78.7616 -0.955078 63.0337 14.7728 63.0337 34.1742H64.9438ZM102.027 67.1677C82.2842 69.4799 64.9438 54.052 64.9438 34.1742H63.0337C63.0337 55.1949 81.3712 71.5101 102.249 69.0649L102.027 67.1677ZM108.547 66.4041L102.027 67.1677L102.249 69.0649L108.769 68.3013L108.547 66.4041ZM116.131 80.9358L109.522 66.9447L107.794 67.7606L114.403 81.7517L116.131 80.9358ZM117.858 80.9358C117.513 81.6654 116.476 81.6654 116.131 80.9358L114.403 81.7517C115.438 83.9402 118.551 83.9402 119.585 81.7517L117.858 80.9358ZM124.467 66.9447L117.858 80.9358L119.585 81.7517L126.194 67.7606L124.467 66.9447ZM131.962 67.1677L125.442 66.4041L125.219 68.3013L131.739 69.0649L131.962 67.1677Z" fill="url(#paint11_linear_1674_8624)"/>
</g>
<g filter="url(#filter8_d_1674_8624)">
<path d="M90.1744 31.5171H88.8202C87.2379 31.5171 85.9551 32.7999 85.9551 34.3823V35.7364C85.9551 37.3188 87.2379 38.6016 88.8202 38.6016H90.1744C91.7568 38.6016 93.0396 37.3188 93.0396 35.7364V34.3823C93.0396 32.7999 91.7568 31.5171 90.1744 31.5171Z" fill="white"/>
<path d="M103.944 31.5171H102.59C101.008 31.5171 99.7251 32.7999 99.7251 34.3823V35.7364C99.7251 37.3188 101.008 38.6016 102.59 38.6016H103.944C105.527 38.6016 106.81 37.3188 106.81 35.7364V34.3823C106.81 32.7999 105.527 31.5171 103.944 31.5171Z" fill="white"/>
<path d="M117.714 31.5171H116.36C114.778 31.5171 113.495 32.7999 113.495 34.3823V35.7364C113.495 37.3188 114.778 38.6016 116.36 38.6016H117.714C119.297 38.6016 120.58 37.3188 120.58 35.7364V34.3823C120.58 32.7999 119.297 31.5171 117.714 31.5171Z" fill="white"/>
<path d="M131.484 31.5171H130.13C128.548 31.5171 127.265 32.7999 127.265 34.3823V35.7364C127.265 37.3188 128.548 38.6016 130.13 38.6016H131.484C133.067 38.6016 134.35 37.3188 134.35 35.7364V34.3823C134.35 32.7999 133.067 31.5171 131.484 31.5171Z" fill="white"/>
<path d="M145.255 31.5171H143.9C142.318 31.5171 141.035 32.7999 141.035 34.3823V35.7364C141.035 37.3188 142.318 38.6016 143.9 38.6016H145.255C146.837 38.6016 148.12 37.3188 148.12 35.7364V34.3823C148.12 32.7999 146.837 31.5171 145.255 31.5171Z" fill="white"/>
</g>
<g style="mix-blend-mode:multiply" opacity="0.5">
<path fill-rule="evenodd" clip-rule="evenodd" d="M131.85 68.1163C152.161 70.495 170 54.6234 170 34.1742C170 15.3003 154.7 6.2802e-06 135.826 3.29259e-06L98.1626 0C79.2891 -1.65e-06 63.9888 15.3003 63.9888 34.1742C63.9888 54.6234 81.8277 70.495 102.138 68.1163L108.659 67.3528L115.268 81.3438C115.956 82.8028 118.033 82.8028 118.721 81.3438L125.33 67.3528L131.85 68.1163Z" fill="url(#paint12_radial_1674_8624)" fill-opacity="0.7"/>
<mask id="mask2_1674_8624" style="mask-type:luminance" maskUnits="userSpaceOnUse" x="63" y="0" width="107" height="83">
<g style="mix-blend-mode:multiply" opacity="0.5">
<path fill-rule="evenodd" clip-rule="evenodd" d="M131.85 68.1163C152.161 70.495 170 54.6234 170 34.1742C170 15.3003 154.7 6.2802e-06 135.826 3.29259e-06L98.1626 0C79.2891 -1.65e-06 63.9888 15.3003 63.9888 34.1742C63.9888 54.6234 81.8277 70.495 102.138 68.1163L108.659 67.3528L115.268 81.3438C115.956 82.8028 118.033 82.8028 118.721 81.3438L125.33 67.3528L131.85 68.1163Z" fill="white"/>
</g>
</mask>
<g mask="url(#mask2_1674_8624)">
<path d="M108.659 67.3527L109.522 66.9447L109.229 66.3243L108.547 66.4041L108.659 67.3527ZM125.33 67.3527L125.442 66.4041L124.76 66.3243L124.467 66.9447L125.33 67.3527ZM169.045 34.1742C169.045 54.052 151.705 69.4799 131.962 67.1677L131.739 69.0649C152.618 71.5101 170.955 55.1949 170.955 34.1742H169.045ZM135.826 0.955034C154.172 0.955044 169.045 15.8277 169.045 34.1742H170.955C170.955 14.7728 155.227 -0.955071 135.826 -0.955075V0.955034ZM98.1626 0.955034H135.826V-0.955075L98.1626 -0.955078V0.955034ZM64.9438 34.1742C64.9438 15.8277 79.8165 0.955032 98.1626 0.955034V-0.955078C78.7616 -0.955078 63.0337 14.7728 63.0337 34.1742H64.9438ZM102.027 67.1677C82.2842 69.4799 64.9438 54.052 64.9438 34.1742H63.0337C63.0337 55.1949 81.3712 71.5101 102.249 69.0649L102.027 67.1677ZM108.547 66.4041L102.027 67.1677L102.249 69.0649L108.769 68.3013L108.547 66.4041ZM116.131 80.9358L109.522 66.9447L107.794 67.7606L114.403 81.7517L116.131 80.9358ZM117.858 80.9358C117.513 81.6654 116.476 81.6654 116.131 80.9358L114.403 81.7517C115.438 83.9402 118.551 83.9402 119.585 81.7517L117.858 80.9358ZM124.467 66.9447L117.858 80.9358L119.585 81.7517L126.194 67.7606L124.467 66.9447ZM131.962 67.1677L125.442 66.4041L125.219 68.3013L131.739 69.0649L131.962 67.1677Z" fill="url(#paint13_linear_1674_8624)"/>
</g>
<g filter="url(#filter9_d_1674_8624)">
<path d="M90.1744 31.5171H88.8202C87.2379 31.5171 85.9551 32.7999 85.9551 34.3823V35.7364C85.9551 37.3188 87.2379 38.6016 88.8202 38.6016H90.1744C91.7568 38.6016 93.0396 37.3188 93.0396 35.7364V34.3823C93.0396 32.7999 91.7568 31.5171 90.1744 31.5171Z" fill="white"/>
<path d="M103.944 31.5171H102.59C101.008 31.5171 99.7251 32.7999 99.7251 34.3823V35.7364C99.7251 37.3188 101.008 38.6016 102.59 38.6016H103.944C105.527 38.6016 106.81 37.3188 106.81 35.7364V34.3823C106.81 32.7999 105.527 31.5171 103.944 31.5171Z" fill="white"/>
<path d="M117.714 31.5171H116.36C114.778 31.5171 113.495 32.7999 113.495 34.3823V35.7364C113.495 37.3188 114.778 38.6016 116.36 38.6016H117.714C119.297 38.6016 120.58 37.3188 120.58 35.7364V34.3823C120.58 32.7999 119.297 31.5171 117.714 31.5171Z" fill="white"/>
<path d="M131.484 31.5171H130.13C128.548 31.5171 127.265 32.7999 127.265 34.3823V35.7364C127.265 37.3188 128.548 38.6016 130.13 38.6016H131.484C133.067 38.6016 134.35 37.3188 134.35 35.7364V34.3823C134.35 32.7999 133.067 31.5171 131.484 31.5171Z" fill="white"/>
<path d="M145.255 31.5171H143.9C142.318 31.5171 141.035 32.7999 141.035 34.3823V35.7364C141.035 37.3188 142.318 38.6016 143.9 38.6016H145.255C146.837 38.6016 148.12 37.3188 148.12 35.7364V34.3823C148.12 32.7999 146.837 31.5171 145.255 31.5171Z" fill="white"/>
</g>
</g>
<g filter="url(#filter10_f_1674_8624)">
<path d="M85.955 112.697C112.328 112.697 133.708 112.269 133.708 111.742C133.708 111.214 112.328 110.787 85.955 110.787C59.5818 110.787 38.2021 111.214 38.2021 111.742C38.2021 112.269 59.5818 112.697 85.955 112.697Z" fill="#7191FF" fill-opacity="0.3"/>
</g>
</g>
</g>
<defs>
<filter id="filter0_d_1674_8624" x="13.0112" y="42.9775" width="58.6182" height="14.6855" filterUnits="userSpaceOnUse" color-interpolation-filters="sRGB">
<feFlood flood-opacity="0" result="BackgroundImageFix"/>
<feColorMatrix in="SourceAlpha" type="matrix" values="0 0 0 0 0 0 0 0 0 0 0 0 0 0 0 0 0 0 127 0" result="hardAlpha"/>
<feOffset dx="-4" dy="4"/>
<feGaussianBlur stdDeviation="2"/>
<feComposite in2="hardAlpha" operator="out"/>
<feColorMatrix type="matrix" values="0 0 0 0 0.823529 0 0 0 0 0.862745 0 0 0 0 1 0 0 0 0.2 0"/>
<feBlend mode="normal" in2="BackgroundImageFix" result="effect1_dropShadow_1674_8624"/>
<feBlend mode="normal" in="SourceGraphic" in2="effect1_dropShadow_1674_8624" result="shape"/>
</filter>
<filter id="filter1_d_1674_8624" x="13.0112" y="54.438" width="34.7417" height="14.6855" filterUnits="userSpaceOnUse" color-interpolation-filters="sRGB">
<feFlood flood-opacity="0" result="BackgroundImageFix"/>
<feColorMatrix in="SourceAlpha" type="matrix" values="0 0 0 0 0 0 0 0 0 0 0 0 0 0 0 0 0 0 127 0" result="hardAlpha"/>
<feOffset dx="-4" dy="4"/>
<feGaussianBlur stdDeviation="2"/>
<feComposite in2="hardAlpha" operator="out"/>
<feColorMatrix type="matrix" values="0 0 0 0 0.823529 0 0 0 0 0.862745 0 0 0 0 1 0 0 0 0.2 0"/>
<feBlend mode="normal" in2="BackgroundImageFix" result="effect1_dropShadow_1674_8624"/>
<feBlend mode="normal" in="SourceGraphic" in2="effect1_dropShadow_1674_8624" result="shape"/>
</filter>
<filter id="filter2_d_1674_8624" x="44.5283" y="54.438" width="14.6855" height="14.6855" filterUnits="userSpaceOnUse" color-interpolation-filters="sRGB">
<feFlood flood-opacity="0" result="BackgroundImageFix"/>
<feColorMatrix in="SourceAlpha" type="matrix" values="0 0 0 0 0 0 0 0 0 0 0 0 0 0 0 0 0 0 127 0" result="hardAlpha"/>
<feOffset dx="-4" dy="4"/>
<feGaussianBlur stdDeviation="2"/>
<feComposite in2="hardAlpha" operator="out"/>
<feColorMatrix type="matrix" values="0 0 0 0 0.823529 0 0 0 0 0.862745 0 0 0 0 1 0 0 0 0.2 0"/>
<feBlend mode="normal" in2="BackgroundImageFix" result="effect1_dropShadow_1674_8624"/>
<feBlend mode="normal" in="SourceGraphic" in2="effect1_dropShadow_1674_8624" result="shape"/>
</filter>
<filter id="filter3_d_1674_8624" x="82.9551" y="29.5171" width="72.1646" height="17.0845" filterUnits="userSpaceOnUse" color-interpolation-filters="sRGB">
<feFlood flood-opacity="0" result="BackgroundImageFix"/>
<feColorMatrix in="SourceAlpha" type="matrix" values="0 0 0 0 0 0 0 0 0 0 0 0 0 0 0 0 0 0 127 0" result="hardAlpha"/>
<feOffset dx="2" dy="3"/>
<feGaussianBlur stdDeviation="2.5"/>
<feComposite in2="hardAlpha" operator="out"/>
<feColorMatrix type="matrix" values="0 0 0 0 0.830272 0 0 0 0 0.86799 0 0 0 0 1 0 0 0 0.6 0"/>
<feBlend mode="normal" in2="BackgroundImageFix" result="effect1_dropShadow_1674_8624"/>
<feBlend mode="normal" in="SourceGraphic" in2="effect1_dropShadow_1674_8624" result="shape"/>
</filter>
<filter id="filter4_f_1674_8624" x="28.2021" y="100.787" width="115.506" height="21.9102" filterUnits="userSpaceOnUse" color-interpolation-filters="sRGB">
<feFlood flood-opacity="0" result="BackgroundImageFix"/>
<feBlend mode="normal" in="SourceGraphic" in2="BackgroundImageFix" result="shape"/>
<feGaussianBlur stdDeviation="5" result="effect1_foregroundBlur_1674_8624"/>
</filter>
<filter id="filter5_d_1674_8624" x="13.0112" y="42.9775" width="58.6182" height="14.6855" filterUnits="userSpaceOnUse" color-interpolation-filters="sRGB">
<feFlood flood-opacity="0" result="BackgroundImageFix"/>
<feColorMatrix in="SourceAlpha" type="matrix" values="0 0 0 0 0 0 0 0 0 0 0 0 0 0 0 0 0 0 127 0" result="hardAlpha"/>
<feOffset dx="-4" dy="4"/>
<feGaussianBlur stdDeviation="2"/>
<feComposite in2="hardAlpha" operator="out"/>
<feColorMatrix type="matrix" values="0 0 0 0 0.823529 0 0 0 0 0.862745 0 0 0 0 1 0 0 0 0.2 0"/>
<feBlend mode="normal" in2="BackgroundImageFix" result="effect1_dropShadow_1674_8624"/>
<feBlend mode="normal" in="SourceGraphic" in2="effect1_dropShadow_1674_8624" result="shape"/>
</filter>
<filter id="filter6_d_1674_8624" x="13.0112" y="54.438" width="34.7417" height="14.6855" filterUnits="userSpaceOnUse" color-interpolation-filters="sRGB">
<feFlood flood-opacity="0" result="BackgroundImageFix"/>
<feColorMatrix in="SourceAlpha" type="matrix" values="0 0 0 0 0 0 0 0 0 0 0 0 0 0 0 0 0 0 127 0" result="hardAlpha"/>
<feOffset dx="-4" dy="4"/>
<feGaussianBlur stdDeviation="2"/>
<feComposite in2="hardAlpha" operator="out"/>
<feColorMatrix type="matrix" values="0 0 0 0 0.823529 0 0 0 0 0.862745 0 0 0 0 1 0 0 0 0.2 0"/>
<feBlend mode="normal" in2="BackgroundImageFix" result="effect1_dropShadow_1674_8624"/>
<feBlend mode="normal" in="SourceGraphic" in2="effect1_dropShadow_1674_8624" result="shape"/>
</filter>
<filter id="filter7_d_1674_8624" x="44.5283" y="54.438" width="14.6855" height="14.6855" filterUnits="userSpaceOnUse" color-interpolation-filters="sRGB">
<feFlood flood-opacity="0" result="BackgroundImageFix"/>
<feColorMatrix in="SourceAlpha" type="matrix" values="0 0 0 0 0 0 0 0 0 0 0 0 0 0 0 0 0 0 127 0" result="hardAlpha"/>
<feOffset dx="-4" dy="4"/>
<feGaussianBlur stdDeviation="2"/>
<feComposite in2="hardAlpha" operator="out"/>
<feColorMatrix type="matrix" values="0 0 0 0 0.823529 0 0 0 0 0.862745 0 0 0 0 1 0 0 0 0.2 0"/>
<feBlend mode="normal" in2="BackgroundImageFix" result="effect1_dropShadow_1674_8624"/>
<feBlend mode="normal" in="SourceGraphic" in2="effect1_dropShadow_1674_8624" result="shape"/>
</filter>
<filter id="filter8_d_1674_8624" x="82.9551" y="29.5171" width="72.1646" height="17.0845" filterUnits="userSpaceOnUse" color-interpolation-filters="sRGB">
<feFlood flood-opacity="0" result="BackgroundImageFix"/>
<feColorMatrix in="SourceAlpha" type="matrix" values="0 0 0 0 0 0 0 0 0 0 0 0 0 0 0 0 0 0 127 0" result="hardAlpha"/>
<feOffset dx="2" dy="3"/>
<feGaussianBlur stdDeviation="2.5"/>
<feComposite in2="hardAlpha" operator="out"/>
<feColorMatrix type="matrix" values="0 0 0 0 0.830272 0 0 0 0 0.86799 0 0 0 0 1 0 0 0 0.6 0"/>
<feBlend mode="normal" in2="BackgroundImageFix" result="effect1_dropShadow_1674_8624"/>
<feBlend mode="normal" in="SourceGraphic" in2="effect1_dropShadow_1674_8624" result="shape"/>
</filter>
<filter id="filter9_d_1674_8624" x="82.9551" y="29.5171" width="72.1646" height="17.0845" filterUnits="userSpaceOnUse" color-interpolation-filters="sRGB">
<feFlood flood-opacity="0" result="BackgroundImageFix"/>
<feColorMatrix in="SourceAlpha" type="matrix" values="0 0 0 0 0 0 0 0 0 0 0 0 0 0 0 0 0 0 127 0" result="hardAlpha"/>
<feOffset dx="2" dy="3"/>
<feGaussianBlur stdDeviation="2.5"/>
<feComposite in2="hardAlpha" operator="out"/>
<feColorMatrix type="matrix" values="0 0 0 0 0.830272 0 0 0 0 0.86799 0 0 0 0 1 0 0 0 0.6 0"/>
<feBlend mode="normal" in2="BackgroundImageFix" result="effect1_dropShadow_1674_8624"/>
<feBlend mode="normal" in="SourceGraphic" in2="effect1_dropShadow_1674_8624" result="shape"/>
</filter>
<filter id="filter10_f_1674_8624" x="28.2021" y="100.787" width="115.506" height="21.9102" filterUnits="userSpaceOnUse" color-interpolation-filters="sRGB">
<feFlood flood-opacity="0" result="BackgroundImageFix"/>
<feBlend mode="normal" in="SourceGraphic" in2="BackgroundImageFix" result="shape"/>
<feGaussianBlur stdDeviation="5" result="effect1_foregroundBlur_1674_8624"/>
</filter>
<radialGradient id="paint0_radial_1674_8624" cx="0" cy="0" r="1" gradientUnits="userSpaceOnUse" gradientTransform="translate(58.5033 69.045) rotate(-144.069) scale(72.9041 106.349)">
<stop stop-color="#DCE4FF"/>
<stop offset="1" stop-color="#EEF1FF"/>
</radialGradient>
<linearGradient id="paint1_linear_1674_8624" x1="21.0112" y1="46.3202" x2="71.6292" y2="46.3202" gradientUnits="userSpaceOnUse">
<stop stop-color="#D1DBFF"/>
<stop offset="1" stop-color="#C9D5FF" stop-opacity="0"/>
</linearGradient>
<linearGradient id="paint2_linear_1674_8624" x1="21.0112" y1="57.7807" x2="43.593" y2="57.7807" gradientUnits="userSpaceOnUse">
<stop stop-color="#D1DBFF"/>
<stop offset="1" stop-color="#C9D5FF" stop-opacity="0.4"/>
</linearGradient>
<linearGradient id="paint3_linear_1674_8624" x1="52.5283" y1="57.7807" x2="58.1738" y2="57.7807" gradientUnits="userSpaceOnUse">
<stop stop-color="#D1DBFF"/>
<stop offset="1" stop-color="#C9D5FF" stop-opacity="0.6"/>
</linearGradient>
<radialGradient id="paint4_radial_1674_8624" cx="0" cy="0" r="1" gradientUnits="userSpaceOnUse" gradientTransform="translate(80.2247 8.5955) rotate(24.7981) scale(83.1132 121.389)">
<stop stop-color="#A5B9FF"/>
<stop offset="1" stop-color="#E7EBFF"/>
</radialGradient>
<linearGradient id="paint5_linear_1674_8624" x1="116.994" y1="-2.19995e-05" x2="116.994" y2="82.438" gradientUnits="userSpaceOnUse">
<stop stop-color="#E6EBFF"/>
<stop offset="1" stop-color="white" stop-opacity="0.4"/>
</linearGradient>
<radialGradient id="paint6_radial_1674_8624" cx="0" cy="0" r="1" gradientUnits="userSpaceOnUse" gradientTransform="translate(58.5033 69.045) rotate(-144.069) scale(72.9041 106.349)">
<stop stop-color="#DCE4FF"/>
<stop offset="1" stop-color="#EEF1FF"/>
</radialGradient>
<linearGradient id="paint7_linear_1674_8624" x1="21.0112" y1="46.3202" x2="71.6292" y2="46.3202" gradientUnits="userSpaceOnUse">
<stop stop-color="#D1DBFF"/>
<stop offset="1" stop-color="#C9D5FF" stop-opacity="0"/>
</linearGradient>
<linearGradient id="paint8_linear_1674_8624" x1="21.0112" y1="57.7807" x2="43.593" y2="57.7807" gradientUnits="userSpaceOnUse">
<stop stop-color="#D1DBFF"/>
<stop offset="1" stop-color="#C9D5FF" stop-opacity="0.4"/>
</linearGradient>
<linearGradient id="paint9_linear_1674_8624" x1="52.5283" y1="57.7807" x2="58.1738" y2="57.7807" gradientUnits="userSpaceOnUse">
<stop stop-color="#D1DBFF"/>
<stop offset="1" stop-color="#C9D5FF" stop-opacity="0.6"/>
</linearGradient>
<radialGradient id="paint10_radial_1674_8624" cx="0" cy="0" r="1" gradientUnits="userSpaceOnUse" gradientTransform="translate(80.2247 8.5955) rotate(24.7981) scale(83.1132 121.389)">
<stop stop-color="#A5B9FF"/>
<stop offset="1" stop-color="#E7EBFF"/>
</radialGradient>
<linearGradient id="paint11_linear_1674_8624" x1="116.994" y1="-2.19995e-05" x2="116.994" y2="82.438" gradientUnits="userSpaceOnUse">
<stop stop-color="#E6EBFF"/>
<stop offset="1" stop-color="white" stop-opacity="0.4"/>
</linearGradient>
<radialGradient id="paint12_radial_1674_8624" cx="0" cy="0" r="1" gradientUnits="userSpaceOnUse" gradientTransform="translate(80.2247 8.5955) rotate(24.7981) scale(83.1132 121.389)">
<stop stop-color="#A5B9FF"/>
<stop offset="1" stop-color="#E7EBFF"/>
</radialGradient>
<linearGradient id="paint13_linear_1674_8624" x1="116.994" y1="-2.19995e-05" x2="116.994" y2="82.438" gradientUnits="userSpaceOnUse">
<stop stop-color="#E6EBFF"/>
<stop offset="1" stop-color="white" stop-opacity="0.4"/>
</linearGradient>
<clipPath id="clip0_1674_8624">
<rect width="170" height="122.247" fill="white"/>
</clipPath>
</defs>
</svg>
