<svg width="24" height="24" viewBox="0 0 24 24" fill="none" xmlns="http://www.w3.org/2000/svg">
<path d="M17.3846 6.0769H6.61538C5.72323 6.0769 5 6.80014 5 7.69229V17.3846C5 18.2767 5.72323 19 6.61538 19H17.3846C18.2768 19 19 18.2767 19 17.3846V7.69229C19 6.80014 18.2768 6.0769 17.3846 6.0769Z" stroke="#757575" stroke-width="1.2" stroke-linejoin="round"/>
<path d="M13.346 12.0002C13.7921 12.0002 14.1537 11.6385 14.1537 11.1925C14.1537 10.7464 13.7921 10.3848 13.346 10.3848C12.8999 10.3848 12.5383 10.7464 12.5383 11.1925C12.5383 11.6385 12.8999 12.0002 13.346 12.0002Z" fill="#757575"/>
<path d="M16.0384 12.0002C16.4845 12.0002 16.8461 11.6385 16.8461 11.1925C16.8461 10.7464 16.4845 10.3848 16.0384 10.3848C15.5923 10.3848 15.2307 10.7464 15.2307 11.1925C15.2307 11.6385 15.5923 12.0002 16.0384 12.0002Z" fill="#757575"/>
<path d="M13.346 14.6923C13.7921 14.6923 14.1537 14.3307 14.1537 13.8846C14.1537 13.4385 13.7921 13.0769 13.346 13.0769C12.8999 13.0769 12.5383 13.4385 12.5383 13.8846C12.5383 14.3307 12.8999 14.6923 13.346 14.6923Z" fill="#757575"/>
<path d="M16.0384 14.6923C16.4845 14.6923 16.8461 14.3307 16.8461 13.8846C16.8461 13.4385 16.4845 13.0769 16.0384 13.0769C15.5923 13.0769 15.2307 13.4385 15.2307 13.8846C15.2307 14.3307 15.5923 14.6923 16.0384 14.6923Z" fill="#757575"/>
<path d="M7.9615 14.6923C8.40758 14.6923 8.76919 14.3307 8.76919 13.8846C8.76919 13.4385 8.40758 13.0769 7.9615 13.0769C7.51542 13.0769 7.15381 13.4385 7.15381 13.8846C7.15381 14.3307 7.51542 14.6923 7.9615 14.6923Z" fill="#757575"/>
<path d="M10.6539 14.6923C11.1 14.6923 11.4616 14.3307 11.4616 13.8846C11.4616 13.4385 11.1 13.0769 10.6539 13.0769C10.2078 13.0769 9.84619 13.4385 9.84619 13.8846C9.84619 14.3307 10.2078 14.6923 10.6539 14.6923Z" fill="#757575"/>
<path d="M7.9615 17.3849C8.40758 17.3849 8.76919 17.0233 8.76919 16.5772C8.76919 16.1311 8.40758 15.7695 7.9615 15.7695C7.51542 15.7695 7.15381 16.1311 7.15381 16.5772C7.15381 17.0233 7.51542 17.3849 7.9615 17.3849Z" fill="#757575"/>
<path d="M10.6539 17.3849C11.1 17.3849 11.4616 17.0233 11.4616 16.5772C11.4616 16.1311 11.1 15.7695 10.6539 15.7695C10.2078 15.7695 9.84619 16.1311 9.84619 16.5772C9.84619 17.0233 10.2078 17.3849 10.6539 17.3849Z" fill="#757575"/>
<path d="M13.346 17.3849C13.7921 17.3849 14.1537 17.0233 14.1537 16.5772C14.1537 16.1311 13.7921 15.7695 13.346 15.7695C12.8999 15.7695 12.5383 16.1311 12.5383 16.5772C12.5383 17.0233 12.8999 17.3849 13.346 17.3849Z" fill="#757575"/>
<path d="M7.69238 5V6.07692M16.3078 5V6.07692" stroke="#757575" stroke-width="1.2" stroke-linecap="round" stroke-linejoin="round"/>
<path d="M19 8.76953H5" stroke="#757575" stroke-width="1.2" stroke-linejoin="round"/>
</svg>
