<svg width="220" height="146" viewBox="0 0 220 146" fill="none" xmlns="http://www.w3.org/2000/svg">
<g clip-path="url(#clip0_996_4117)">
<g filter="url(#filter0_f_996_4117)">
<path d="M185.139 99.6973L131.52 137.415C124.283 142.442 109.851 141.75 102.441 138.643L4.83861 100.629C2.98598 99.8621 2.76267 97.3322 4.45816 96.2609L65.6116 57.5127C66.2815 57.0842 67.1168 57.01 67.8612 57.2984L184.618 95.3874C186.446 96.1126 186.735 98.5601 185.139 99.6973Z" fill="url(#paint0_linear_996_4117)" fill-opacity="0.6"/>
</g>
<path d="M99.4549 0.412597L32.1733 43.7177C30.9906 44.5006 30.7011 46.0993 31.5365 47.2365C36.4741 53.928 52.4282 76.0626 68.1673 103.307C80.8049 125.178 97.5858 133.064 109.297 135.858C116.939 137.679 124.987 136.047 131.413 131.548L185.751 93.4591C187.43 92.2807 187.033 89.7095 185.081 89.0832C178.093 86.8418 164.851 82.2679 154.786 76.7878C137.988 67.6488 126.111 30.6314 102.763 0.940005C101.977 -0.073607 100.53 -0.296107 99.4549 0.412597Z" fill="url(#paint1_linear_996_4117)"/>
<path opacity="0.9" d="M107.941 21.5417L48.822 59.0288C48.0446 59.515 47.019 59.2843 46.531 58.5097L38.6077 47.2528C38.1197 46.4782 38.3513 45.4563 39.1288 44.9701L99.0826 7.47477C99.8601 6.98856 100.886 7.2193 101.374 7.99393L108.462 19.2508C108.958 20.0336 108.718 21.0555 107.941 21.5417Z" fill="url(#paint2_linear_996_4117)"/>
<path d="M132.281 67.3439L80.6726 99.615C78.9937 100.662 76.7853 100.159 75.7349 98.486C74.6846 96.8131 75.1892 94.6128 76.8681 93.5663L128.477 61.2952C130.156 60.2486 132.364 60.7513 133.414 62.4242C134.465 64.0888 133.952 66.2973 132.281 67.3439Z" fill="url(#paint3_linear_996_4117)"/>
<path d="M104.533 66.1573L72.8235 85.9847C71.4258 86.8583 69.5897 86.438 68.713 85.0453L68.0679 84.0234C67.1912 82.6307 67.613 80.8011 69.0108 79.9275L100.72 60.1003C102.118 59.2268 103.954 59.6471 104.831 61.0398L105.476 62.0616C106.353 63.4543 105.931 65.292 104.533 66.1573Z" fill="url(#paint4_linear_996_4117)"/>
<path d="M141.495 79.6555L89.8857 111.927C88.2067 112.973 85.9985 112.471 84.9481 110.798C83.8977 109.125 84.4022 106.924 86.0812 105.878L137.69 73.6068C139.369 72.5602 141.577 73.0629 142.628 74.7358C143.678 76.4087 143.165 78.6089 141.495 79.6555Z" fill="url(#paint5_linear_996_4117)"/>
<path d="M152.71 90.616L101.101 122.887C99.4218 123.933 97.2136 123.431 96.1632 121.758C95.1128 120.085 95.6173 117.885 97.2963 116.838L148.905 84.5673C150.584 83.5208 152.793 84.0234 153.843 85.6963C154.893 87.3609 154.389 89.5695 152.71 90.616Z" fill="url(#paint6_linear_996_4117)"/>
<g filter="url(#filter1_f_996_4117)">
<path d="M207.451 92.9424L135.405 89.0034C133.528 88.9045 131.873 91.2119 131.708 94.1786L131.518 97.582C131.352 100.54 132.742 103.021 134.619 103.128L206.665 107.067C208.543 107.166 210.197 104.85 210.362 101.892L210.552 98.4885C210.718 95.53 209.328 93.0496 207.451 92.9424Z" fill="url(#paint7_linear_996_4117)" fill-opacity="0.8"/>
</g>
<g filter="url(#filter2_f_996_4117)">
<path d="M134.651 92.9951C134.461 93.2292 134.219 93.394 133.956 93.4681L126.644 95.5456C125.612 95.8407 124.686 94.6952 124.925 93.4203L126.605 84.3753C126.665 84.0498 126.798 83.7548 126.987 83.5166L140.788 66.4465C141.349 65.7524 142.257 65.7524 142.816 66.4465L148.451 73.4177C149.013 74.1117 149.013 75.2352 148.451 75.925L134.651 92.9951Z" fill="#E2E8F6"/>
</g>
<g style="mix-blend-mode:multiply" filter="url(#filter3_f_996_4117)">
<path d="M155.327 100.989C155.138 101.171 154.896 101.299 154.633 101.357L147.321 102.973C146.289 103.202 145.363 102.311 145.602 101.32L147.282 94.2848C147.341 94.0318 147.474 93.8027 147.664 93.6165L161.465 80.3401C162.026 79.8002 162.934 79.8002 163.492 80.3401L169.128 85.7622C169.689 86.302 169.689 87.1755 169.128 87.712L155.327 100.989Z" fill="#A0B0D5"/>
</g>
<g filter="url(#filter4_d_996_4117)">
<path d="M152.263 97.0026C151.817 97.4476 151.246 97.7608 150.626 97.9008L133.381 101.848C130.95 102.409 128.766 100.233 129.329 97.8102L133.29 80.6278C133.431 80.0098 133.745 79.4494 134.192 78.9962L166.737 46.5688C168.06 45.2503 170.202 45.2503 171.517 46.5688L184.808 59.8118C186.132 61.1303 186.132 63.2646 184.808 64.5749L152.263 97.0026Z" fill="url(#paint8_linear_996_4117)"/>
</g>
<g filter="url(#filter5_d_996_4117)">
<path d="M199.009 45.6624C200.332 46.9809 200.332 49.1153 199.009 50.4256L192.74 56.6721C191.417 57.9906 189.274 57.9906 187.959 56.6721L174.677 43.4292C173.353 42.1107 173.353 39.9763 174.677 38.666L180.946 32.4196C182.269 31.101 184.411 31.101 185.726 32.4196L199.009 45.6624Z" fill="url(#paint9_linear_996_4117)"/>
</g>
</g>
<defs>
<filter id="filter0_f_996_4117" x="-0.691772" y="53.1259" width="190.872" height="91.9567" filterUnits="userSpaceOnUse" color-interpolation-filters="sRGB">
<feFlood flood-opacity="0" result="BackgroundImageFix"/>
<feBlend mode="normal" in="SourceGraphic" in2="BackgroundImageFix" result="shape"/>
<feGaussianBlur stdDeviation="2" result="effect1_foregroundBlur_996_4117"/>
</filter>
<filter id="filter1_f_996_4117" x="129.504" y="87.0003" width="83.0613" height="22.0698" filterUnits="userSpaceOnUse" color-interpolation-filters="sRGB">
<feFlood flood-opacity="0" result="BackgroundImageFix"/>
<feBlend mode="normal" in="SourceGraphic" in2="BackgroundImageFix" result="shape"/>
<feGaussianBlur stdDeviation="1" result="effect1_foregroundBlur_996_4117"/>
</filter>
<filter id="filter2_f_996_4117" x="110.887" y="51.9259" width="51.9851" height="57.6666" filterUnits="userSpaceOnUse" color-interpolation-filters="sRGB">
<feFlood flood-opacity="0" result="BackgroundImageFix"/>
<feBlend mode="normal" in="SourceGraphic" in2="BackgroundImageFix" result="shape"/>
<feGaussianBlur stdDeviation="7" result="effect1_foregroundBlur_996_4117"/>
</filter>
<filter id="filter3_f_996_4117" x="131.564" y="65.9352" width="51.9851" height="51.0742" filterUnits="userSpaceOnUse" color-interpolation-filters="sRGB">
<feFlood flood-opacity="0" result="BackgroundImageFix"/>
<feBlend mode="normal" in="SourceGraphic" in2="BackgroundImageFix" result="shape"/>
<feGaussianBlur stdDeviation="7" result="effect1_foregroundBlur_996_4117"/>
</filter>
<filter id="filter4_d_996_4117" x="105.239" y="25.58" width="104.561" height="104.357" filterUnits="userSpaceOnUse" color-interpolation-filters="sRGB">
<feFlood flood-opacity="0" result="BackgroundImageFix"/>
<feColorMatrix in="SourceAlpha" type="matrix" values="0 0 0 0 0 0 0 0 0 0 0 0 0 0 0 0 0 0 127 0" result="hardAlpha"/>
<feOffset dy="4"/>
<feGaussianBlur stdDeviation="12"/>
<feComposite in2="hardAlpha" operator="out"/>
<feColorMatrix type="matrix" values="0 0 0 0 0.960784 0 0 0 0 0.960784 0 0 0 0 0.960784 0 0 0 1 0"/>
<feBlend mode="normal" in2="BackgroundImageFix" result="effect1_dropShadow_996_4117"/>
<feBlend mode="normal" in="SourceGraphic" in2="effect1_dropShadow_996_4117" result="shape"/>
</filter>
<filter id="filter5_d_996_4117" x="149.684" y="11.4307" width="74.3173" height="74.2303" filterUnits="userSpaceOnUse" color-interpolation-filters="sRGB">
<feFlood flood-opacity="0" result="BackgroundImageFix"/>
<feColorMatrix in="SourceAlpha" type="matrix" values="0 0 0 0 0 0 0 0 0 0 0 0 0 0 0 0 0 0 127 0" result="hardAlpha"/>
<feOffset dy="4"/>
<feGaussianBlur stdDeviation="12"/>
<feComposite in2="hardAlpha" operator="out"/>
<feColorMatrix type="matrix" values="0 0 0 0 0.960784 0 0 0 0 0.960784 0 0 0 0 0.960784 0 0 0 1 0"/>
<feBlend mode="normal" in2="BackgroundImageFix" result="effect1_dropShadow_996_4117"/>
<feBlend mode="normal" in="SourceGraphic" in2="effect1_dropShadow_996_4117" result="shape"/>
</filter>
<linearGradient id="paint0_linear_996_4117" x1="18.9188" y1="64.2731" x2="201.08" y2="145.92" gradientUnits="userSpaceOnUse">
<stop stop-color="#BDC8DA" stop-opacity="0"/>
<stop offset="1" stop-color="#56588C"/>
</linearGradient>
<linearGradient id="paint1_linear_996_4117" x1="107.519" y1="43.6765" x2="211.561" y2="99.6158" gradientUnits="userSpaceOnUse">
<stop stop-color="white"/>
<stop offset="0.338309" stop-color="#F5F7FD"/>
<stop offset="1" stop-color="#DBE2F6"/>
</linearGradient>
<linearGradient id="paint2_linear_996_4117" x1="45.042" y1="51.3316" x2="98.2074" y2="17.8421" gradientUnits="userSpaceOnUse">
<stop stop-color="#DBE2F6"/>
<stop offset="1" stop-color="#DBE2F6" stop-opacity="0.2"/>
</linearGradient>
<linearGradient id="paint3_linear_996_4117" x1="78.2723" y1="96.8996" x2="127.128" y2="66.1246" gradientUnits="userSpaceOnUse">
<stop stop-color="#DBE2F6" stop-opacity="0.8"/>
<stop offset="1" stop-color="#DBE2F6" stop-opacity="0"/>
</linearGradient>
<linearGradient id="paint4_linear_996_4117" x1="70.0213" y1="83.5298" x2="101.154" y2="63.9187" gradientUnits="userSpaceOnUse">
<stop stop-color="#DBE2F6" stop-opacity="0.8"/>
<stop offset="1" stop-color="#DBE2F6" stop-opacity="0"/>
</linearGradient>
<linearGradient id="paint5_linear_996_4117" x1="87.4855" y1="109.215" x2="136.342" y2="78.4397" gradientUnits="userSpaceOnUse">
<stop stop-color="#DBE2F6" stop-opacity="0.8"/>
<stop offset="1" stop-color="#DBE2F6" stop-opacity="0"/>
</linearGradient>
<linearGradient id="paint6_linear_996_4117" x1="98.7023" y1="120.171" x2="147.558" y2="89.3967" gradientUnits="userSpaceOnUse">
<stop stop-color="#DBE2F6" stop-opacity="0.8"/>
<stop offset="1" stop-color="#DBE2F6" stop-opacity="0"/>
</linearGradient>
<linearGradient id="paint7_linear_996_4117" x1="135.064" y1="96.0846" x2="201.984" y2="99.7651" gradientUnits="userSpaceOnUse">
<stop stop-color="#868DB3"/>
<stop offset="0.0247" stop-color="#888FB4" stop-opacity="0.9753"/>
<stop offset="0.33" stop-color="#A5A9C9" stop-opacity="0.5846"/>
<stop offset="0.7539" stop-color="#B7BAD6" stop-opacity="0.2461"/>
<stop offset="1" stop-color="#BDC0DA" stop-opacity="0"/>
</linearGradient>
<linearGradient id="paint8_linear_996_4117" x1="144.975" y1="67.8778" x2="163.164" y2="86.1323" gradientUnits="userSpaceOnUse">
<stop stop-color="white"/>
<stop offset="0.365" stop-color="white"/>
<stop offset="0.81" stop-color="#E5E9F4"/>
</linearGradient>
<linearGradient id="paint9_linear_996_4117" x1="177.617" y1="35.3535" x2="195.805" y2="53.6074" gradientUnits="userSpaceOnUse">
<stop offset="0.27" stop-color="white"/>
<stop offset="0.83" stop-color="#E5E9F4"/>
<stop offset="1" stop-color="#F4F7FF"/>
</linearGradient>
<clipPath id="clip0_996_4117">
<rect width="220" height="145.037" fill="white"/>
</clipPath>
</defs>
</svg>
