<svg width="14" height="14" viewBox="0 0 14 14" fill="none" xmlns="http://www.w3.org/2000/svg">
<circle cx="7" cy="7" r="6" fill="#959595" stroke="#959595" stroke-width="2"/>
<path d="M5.29997 5.14167C4.96663 5 4.82497 4.5875 5.02497 4.2875C5.42913 3.6875 6.10413 3.25 6.9958 3.25C7.97497 3.25 8.6458 3.69583 8.98747 4.25417C9.27913 4.73333 9.44997 5.62917 8.99997 6.29583C8.49997 7.03333 8.0208 7.25833 7.76247 7.73333C7.69997 7.84583 7.66247 7.9375 7.63747 8.125C7.59997 8.42917 7.34997 8.66667 7.04163 8.66667C6.67913 8.66667 6.3833 8.35417 6.42497 7.99167C6.44997 7.77917 6.49997 7.55833 6.61663 7.35C6.93747 6.77083 7.55413 6.42917 7.91247 5.91667C8.29163 5.37917 8.07913 4.375 7.00413 4.375C6.51663 4.375 6.19997 4.62917 6.00413 4.93333C5.8583 5.17083 5.55413 5.24583 5.29997 5.14167ZM7.8333 10.3333C7.8333 10.7917 7.4583 11.1667 6.99997 11.1667C6.54163 11.1667 6.16663 10.7917 6.16663 10.3333C6.16663 9.875 6.54163 9.5 6.99997 9.5C7.4583 9.5 7.8333 9.875 7.8333 10.3333Z" fill="white"/>
</svg>
