<svg width="114" height="109" viewBox="0 0 114 109" fill="none" xmlns="http://www.w3.org/2000/svg">
<g filter="url(#filter0_d_432_2553)">
<rect x="20" y="15" width="74" height="74" rx="25" fill="#3846BB"/>
<path d="M51.6092 65.2819C51.3702 65.5209 51.0687 65.6878 50.7393 65.7634L43.8003 67.3569C42.5055 67.6543 41.3457 66.4945 41.6431 65.1997L43.2366 58.2607C43.3122 57.9313 43.4791 57.6298 43.7181 57.3908L57.6351 43.4738C58.338 42.7708 59.4777 42.7708 60.1807 43.4738L65.5262 48.8193C66.2292 49.5223 66.2292 50.662 65.5262 51.3649L51.6092 65.2819Z" fill="white"/>
<path d="M71.7272 42.6183C72.4302 43.3213 72.4302 44.461 71.7272 45.1639L69.4481 47.443C68.7452 48.146 67.6055 48.146 66.9025 47.443L61.557 42.0975C60.854 41.3945 60.854 40.2548 61.557 39.5519L63.8361 37.2728C64.539 36.5698 65.6787 36.5698 66.3817 37.2728L71.7272 42.6183Z" fill="white"/>
</g>
<defs>
<filter id="filter0_d_432_2553" x="0" y="0" width="114" height="114" filterUnits="userSpaceOnUse" color-interpolation-filters="sRGB">
<feFlood flood-opacity="0" result="BackgroundImageFix"/>
<feColorMatrix in="SourceAlpha" type="matrix" values="0 0 0 0 0 0 0 0 0 0 0 0 0 0 0 0 0 0 127 0" result="hardAlpha"/>
<feOffset dy="5"/>
<feGaussianBlur stdDeviation="10"/>
<feComposite in2="hardAlpha" operator="out"/>
<feColorMatrix type="matrix" values="0 0 0 0 0.415686 0 0 0 0 0.388235 0 0 0 0 0.960784 0 0 0 0.3 0"/>
<feBlend mode="multiply" in2="BackgroundImageFix" result="effect1_dropShadow_432_2553"/>
<feBlend mode="normal" in="SourceGraphic" in2="effect1_dropShadow_432_2553" result="shape"/>
</filter>
</defs>
</svg>
