<svg width="74" height="74" viewBox="0 0 74 74" fill="none" xmlns="http://www.w3.org/2000/svg">
<rect width="74" height="74" rx="25" fill="#F0EFFF"/>
<path d="M31.6092 50.2819C31.3702 50.5209 31.0687 50.6878 30.7393 50.7634L23.8003 52.3569C22.5055 52.6543 21.3457 51.4945 21.6431 50.1997L23.2366 43.2607C23.3122 42.9313 23.4791 42.6298 23.7181 42.3908L37.6351 28.4738C38.338 27.7708 39.4777 27.7708 40.1807 28.4738L45.5262 33.8193C46.2292 34.5223 46.2292 35.662 45.5262 36.3649L31.6092 50.2819Z" fill="#AEABFF"/>
<path d="M51.7272 27.6183C52.4302 28.3213 52.4302 29.461 51.7272 30.1639L49.4481 32.443C48.7452 33.146 47.6055 33.146 46.9025 32.443L41.557 27.0975C40.854 26.3945 40.854 25.2548 41.557 24.5519L43.8361 22.2728C44.539 21.5698 45.6787 21.5698 46.3817 22.2728L51.7272 27.6183Z" fill="#AEABFF"/>
</svg>
