<svg width="40" height="40" viewBox="0 0 40 40" fill="none" xmlns="http://www.w3.org/2000/svg">
<g id="KakaoTalk">
<path id="Shape" d="M0 20C0 8.95433 8.95433 0 20 0C31.0457 0 40 8.95433 40 20C40 31.0457 31.0457 40 20 40C8.95433 40 0 31.0457 0 20Z" fill="#FFE812"/>
<path id="Shape_2" d="M19.9993 9.16406C12.6355 9.16406 6.66602 13.8709 6.66602 19.6769C6.66602 23.4306 9.16168 26.7243 12.9158 28.5842C12.7115 29.2886 11.6033 33.1155 11.5592 33.4161C11.5592 33.4161 11.5327 33.642 11.6789 33.7281C11.8253 33.8143 11.9973 33.7474 11.9973 33.7474C12.4168 33.6888 16.8618 30.5665 17.6312 30.0243C18.3998 30.1331 19.1912 30.1897 19.9993 30.1897C27.3632 30.1897 33.3327 25.4831 33.3327 19.6769C33.3327 13.8709 27.3632 9.16406 19.9993 9.16406Z" fill="#381F1F"/>
<path id="Shape_3" fill-rule="evenodd" clip-rule="evenodd" d="M12.6286 23.35C12.2044 23.35 11.8594 23.0205 11.8594 22.6153V18.0455H10.6591C10.2429 18.0455 9.9043 17.7075 9.9043 17.2922C9.9043 16.877 10.243 16.5391 10.6591 16.5391H14.5981C15.0144 16.5391 15.353 16.877 15.353 17.2922C15.353 17.7075 15.0143 18.0455 14.5981 18.0455H13.3979V22.6153C13.3979 23.0205 13.0529 23.35 12.6286 23.35ZM19.3737 23.34C19.053 23.34 18.8076 23.2097 18.7336 23.0002L18.3527 22.0031L16.007 22.0029L15.626 23.0007C15.5522 23.2098 15.307 23.34 14.9862 23.34C14.8175 23.3401 14.6506 23.3039 14.4972 23.2338C14.2851 23.136 14.0813 22.867 14.3149 22.1415L16.1549 17.2984C16.2845 16.9301 16.6782 16.5506 17.1793 16.5391C17.6817 16.5505 18.0754 16.9301 18.2053 17.2991L20.0445 22.1401C20.2786 22.8672 20.0748 23.1364 19.8627 23.2339C19.7092 23.3039 19.5425 23.3401 19.3737 23.34ZM17.1799 18.4578L17.9482 20.6405H16.4115L17.1799 18.4578ZM21.2825 23.2378C20.8759 23.2378 20.5453 22.9214 20.5453 22.5326V17.3083C20.5453 16.8841 20.8975 16.5391 21.3305 16.5391C21.7635 16.5391 22.1158 16.8841 22.1158 17.3083V21.8275H23.7504C24.157 21.8275 24.4876 22.1439 24.4876 22.5326C24.4876 22.9214 24.157 23.2378 23.7504 23.2378H21.2825ZM24.7868 22.5707C24.7868 22.995 25.1318 23.34 25.556 23.34C25.76 23.3396 25.9556 23.2585 26.0999 23.1142C26.2441 22.97 26.3253 22.7744 26.3255 22.5703V20.892L26.5925 20.6251L28.3965 23.0153C28.4679 23.1107 28.5606 23.1881 28.6674 23.2412C28.774 23.2943 28.8917 23.3216 29.0109 23.3211C29.178 23.3215 29.3406 23.267 29.4736 23.1658C29.5545 23.1052 29.6225 23.0292 29.6737 22.9421C29.7249 22.8551 29.7584 22.7586 29.772 22.6586C29.7865 22.5585 29.7808 22.4566 29.7554 22.3588C29.73 22.261 29.6855 22.1691 29.6244 22.0886L27.7309 19.5802L29.4839 17.8275C29.6044 17.7069 29.6648 17.5406 29.6536 17.3591C29.6425 17.1793 29.5622 17.0061 29.4275 16.8715C29.283 16.7271 29.0901 16.6443 28.8981 16.6443C28.7335 16.6443 28.5818 16.7051 28.4715 16.8155L26.3253 18.9616V17.3083C26.3253 16.8841 25.9803 16.5391 25.556 16.5391C25.1318 16.5391 24.7868 16.8841 24.7868 17.3083V22.5707Z" fill="#FFE812"/>
</g>
</svg>
