<svg width="42" height="42" viewBox="0 0 42 42" fill="none" xmlns="http://www.w3.org/2000/svg">
<rect width="42" height="42" rx="14" fill="#FEE500"/>
<path d="M20.753 12C15.366 12 11 15.443 11 19.69C11 22.436 12.826 24.848 15.572 26.206C15.422 26.721 14.612 29.52 14.58 29.741C14.58 29.741 14.56 29.906 14.667 29.968C14.7026 29.9861 14.7416 29.9967 14.7815 29.9993C14.8213 30.0019 14.8613 29.9963 14.899 29.983C15.207 29.939 18.463 27.656 19.026 27.263C19.598 27.343 20.176 27.381 20.753 27.38C26.14 27.38 30.507 23.937 30.507 19.69C30.507 15.443 26.139 12 20.753 12Z" fill="black" fill-opacity="0.9"/>
</svg>
