<svg width="42" height="42" viewBox="0 0 42 42" fill="none" xmlns="http://www.w3.org/2000/svg">
<rect width="42" height="42" rx="14" fill="#EFF1FF"/>
<g clip-path="url(#clip0_2996_8928)">
<path d="M12.6813 17.9599C12.2877 18.4199 11.8967 19.0026 11.5619 19.6006C11.222 20.2012 10.9306 20.8325 10.6981 21.4714C10.2304 22.7441 10.0131 24.0629 10.1972 25.1567C10.3658 26.2352 10.9536 27.1527 11.7638 27.623C12.574 28.1188 13.7905 28.2363 15.007 27.9782C15.6178 27.8504 16.2107 27.6434 16.7781 27.3546C17.348 27.0633 17.8949 26.7004 18.3958 26.2736C18.9019 25.8519 19.3593 25.3612 19.7708 24.8347C20.1669 24.3159 20.5682 23.6898 20.8544 23.1198C21.1432 22.5422 21.3298 21.9749 21.3911 21.4637C21.4039 21.3308 21.4167 21.221 21.4115 21.1162C21.409 21.0114 21.4013 20.9092 21.386 20.8146C21.3553 20.628 21.2914 20.4594 21.2326 20.3648C21.1688 20.26 21.0946 20.1859 21.0205 20.1399C20.9336 20.0862 20.8416 20.053 20.7394 20.0453C20.5119 20.0377 20.3586 20.0862 20.1107 20.3316C19.8884 20.5641 19.6865 20.9833 19.574 21.5506C19.5178 21.8292 19.4794 22.1512 19.4616 22.4707C19.4437 22.7901 19.4462 23.1122 19.4692 23.4316C19.5612 24.7095 19.988 25.9515 20.696 26.8716C21.0461 27.3316 21.4703 27.7175 21.9355 28.0038C22.398 28.2874 22.9092 28.474 23.4408 28.5507C23.9672 28.6274 24.4963 28.5941 25.0355 28.4536C25.5722 28.3104 26.114 28.06 26.6328 27.7226C27.6756 27.0428 28.5803 26.0384 29.3342 24.8628C30.0805 23.7102 30.6632 22.3531 31.113 20.9807C31.9998 18.2129 32.263 15.2176 32.0714 12.2377L36.3547 12C36.5157 15.4221 36.1502 18.9259 35.0283 22.2662C34.4558 23.9325 33.7479 25.5426 32.7358 27.0812C32.2298 27.8453 31.6778 28.5609 31.0184 29.2535C30.3616 29.9359 29.6256 30.562 28.795 31.091C27.9644 31.6175 27.0315 32.0494 26.0118 32.305C24.9946 32.5606 23.8931 32.6194 22.8325 32.4481C21.7796 32.282 20.7547 31.891 19.8577 31.3236C18.9632 30.7563 18.1965 30.0279 17.5857 29.2024C16.9723 28.3795 16.5174 27.4722 16.203 26.5419C15.8861 25.6091 15.7072 24.6507 15.6433 23.6898C15.6127 23.2093 15.6101 22.7263 15.6382 22.2458C15.6689 21.7653 15.7226 21.2874 15.8274 20.7814C15.9321 20.2779 16.088 19.754 16.3283 19.2275C16.5685 18.7036 16.8982 18.1771 17.3403 17.712C17.7773 17.252 18.3217 16.8482 18.9734 16.5773C19.6277 16.3063 20.3279 16.2016 21.0231 16.2501C21.7233 16.3012 22.4134 16.521 23.0114 16.889C23.6222 17.2622 24.1231 17.7784 24.4809 18.356C24.8438 18.9438 25.0457 19.5495 25.1531 20.1501C25.2068 20.4517 25.2349 20.7481 25.24 21.0446C25.2425 21.1928 25.24 21.3385 25.2323 21.4842C25.2246 21.6299 25.2093 21.7602 25.1991 21.8982C25.0764 22.9844 24.7263 23.9555 24.3123 24.8168C23.8855 25.6858 23.428 26.4218 22.8632 27.1885C22.2984 27.9348 21.6646 28.6299 20.9464 29.2484C20.2334 29.8694 19.4437 30.4163 18.5901 30.8661C17.7313 31.3185 16.8062 31.661 15.8478 31.8756C14.8869 32.0878 13.8799 32.1798 12.8372 32.0852C11.8021 31.9932 10.7211 31.6967 9.73969 31.137C8.7583 30.5825 7.90981 29.7646 7.31689 28.8523C6.70863 27.9424 6.31505 26.8895 6.13615 25.857C5.95214 24.8194 5.96492 23.7996 6.08504 22.8387C6.20516 21.8727 6.43773 20.9577 6.73674 20.0811C7.03832 19.2045 7.40634 18.3688 7.83825 17.5637C8.27527 16.7561 8.7583 15.9843 9.38956 15.21L12.6813 17.9599Z" fill="#6272FF"/>
</g>
<defs>
<clipPath id="clip0_2996_8928">
<rect width="30.4" height="20.5452" fill="white" transform="translate(6 12)"/>
</clipPath>
</defs>
</svg>
