<svg id="Layer_1" data-name="Layer 1" xmlns="http://www.w3.org/2000/svg" viewBox="0 0 164 40"><path d="M85.84,13.14h5L92.17,5.9h6.57l-1.37,7.24h6.47l-1,5.54H96.33L94.41,28.73c-.55,3,1,3.59,2.79,3.59a6.35,6.35,0,0,0,2.85-.87l1.86,5.13a14.11,14.11,0,0,1-6.4,1.49c-5,0-8.71-3.7-7.72-8.88l2-10.51h-5Z"/><path d="M132.65,23.91c0,8.05-7.77,14.16-15.22,14.16-8.54,0-12.92-5.34-12.92-11.39,0-8.11,7.78-14.16,15.22-14.16C128.27,12.52,132.65,17.86,132.65,23.91Zm-6.78,0c0-3.13-2.14-5.64-6.14-5.64a8.39,8.39,0,0,0-8.43,8.41c0,3.13,2.14,5.64,6.13,5.64A8.39,8.39,0,0,0,125.87,23.91Z"/><path d="M49.81,37.45l4.5-24.31H61l-.65,3.49a9.13,9.13,0,0,1,7.31-4.11,9.27,9.27,0,0,1,3.2.62l-1.21,6.15a11.18,11.18,0,0,0-3.44-.7c-3,0-6.39,1.53-7.31,6.5l-2.3,12.36Z"/><path d="M139.11,13.14h6.45l-.41,3a12,12,0,0,1,8.42-3.61c5.86,0,9.32,4,8.23,9.78L159,37.45h-6.76L154.76,24c.6-3.34-1.32-5.15-4.31-5.15A6.44,6.44,0,0,0,143.88,24l-2.51,13.49h-6.75Z"/><polygon points="70.69 37.45 77.27 37.45 81.81 13.14 75.24 13.14 70.69 37.45"/><path d="M79.73,1.91A4.18,4.18,0,0,0,75.4,6a4.33,4.33,0,0,0,8.65,0A4.17,4.17,0,0,0,79.73,1.91Z"/><path d="M12.34,15.57a15.9,15.9,0,0,0-1.73,2.54A19.72,19.72,0,0,0,9.28,21a11.69,11.69,0,0,0-.77,5.69,5.31,5.31,0,0,0,2.43,3.79A7.18,7.18,0,0,0,16,31a11.41,11.41,0,0,0,5.16-2.66,16,16,0,0,0,3.73-4.95c.11-.23.22-.47.32-.71s.2-.48.28-.71a6.31,6.31,0,0,0,.32-1.24,3.25,3.25,0,0,0,0-.51,3.4,3.4,0,0,0,0-.45,1.86,1.86,0,0,0-.22-.65.48.48,0,0,0-.09-.13.67.67,0,0,0-.16-.12.89.89,0,0,0-.43-.13,1.26,1.26,0,0,0-1,.45,4.7,4.7,0,0,0-.84,2,9.86,9.86,0,0,0-.21,1.43,10.3,10.3,0,0,0,0,1.47A10.59,10.59,0,0,0,23.42,27a10.12,10.12,0,0,0,.54,1.3,7.12,7.12,0,0,0,.7,1.1A6.7,6.7,0,0,0,29,31.89a6.39,6.39,0,0,0,2.5-.14,8.09,8.09,0,0,0,2.44-1.11A14.26,14.26,0,0,0,38,26.19a25.87,25.87,0,0,0,2.73-6A37.46,37.46,0,0,0,42.23,6.64l6.64-.37a44.24,44.24,0,0,1-2,15.86,33,33,0,0,1-3.49,7.45,20.71,20.71,0,0,1-6.05,6.27A14.21,14.21,0,0,1,33,37.73a12.34,12.34,0,0,1-4.88.21,12.84,12.84,0,0,1-4.57-1.63,12.6,12.6,0,0,1-3.63-3.23,13.07,13.07,0,0,1-1.27-2,15.74,15.74,0,0,1-.87-2.14,17.3,17.3,0,0,1-.81-4.42,16.9,16.9,0,0,1,0-2.25A14.54,14.54,0,0,1,17.29,20,13.07,13.07,0,0,1,18,17.68a8.75,8.75,0,0,1,1.45-2.37,7.2,7.2,0,0,1,5.63-2.47,6.77,6.77,0,0,1,3.11.88,6.31,6.31,0,0,1,1.34,1A6.39,6.39,0,0,1,30.61,16a7.86,7.86,0,0,1,1,2.82,9.57,9.57,0,0,1,.11,1.41,9.71,9.71,0,0,1-.1,1.34,12.35,12.35,0,0,1-.58,2.36c-.13.36-.26.69-.4,1s-.28.67-.43,1a21.94,21.94,0,0,1-5.08,6.92A17.36,17.36,0,0,1,17.28,37a14.93,14.93,0,0,1-4.65.34,11.72,11.72,0,0,1-4.8-1.44,11.07,11.07,0,0,1-3.77-3.52,12.23,12.23,0,0,1-1.84-4.63,15.37,15.37,0,0,1-.08-4.68,21,21,0,0,1,1-4.26,25.56,25.56,0,0,1,1.7-3.9,23.54,23.54,0,0,1,2.4-3.64Z"/></svg>