<svg id="Layer_1" data-name="Layer 1" xmlns="http://www.w3.org/2000/svg" viewBox="0 0 32 32"><defs><style>.cls-1{fill:#6272ff;}</style></defs><path class="cls-1" d="M7.05,11.49a12.17,12.17,0,0,0-1.18,1.73,14.61,14.61,0,0,0-.91,2,8,8,0,0,0-.52,3.88A3.58,3.58,0,0,0,6.1,21.65,4.79,4.79,0,0,0,9.51,22,7.62,7.62,0,0,0,13,20.2a10.63,10.63,0,0,0,2.54-3.38,5.11,5.11,0,0,0,.22-.48c.07-.16.14-.33.19-.48a5,5,0,0,0,.23-.85c0-.12,0-.24,0-.35a1.45,1.45,0,0,0,0-.3,1.13,1.13,0,0,0-.14-.45L16,13.82a.35.35,0,0,0-.11-.08.75.75,0,0,0-.29-.09A.84.84,0,0,0,15,14a3.21,3.21,0,0,0-.58,1.4,6.25,6.25,0,0,0-.13,1,6.66,6.66,0,0,0,0,1,7.4,7.4,0,0,0,.37,1.95,7.22,7.22,0,0,0,.38.89,5,5,0,0,0,.47.75,4.58,4.58,0,0,0,2.95,1.69,4.3,4.3,0,0,0,1.71-.1,5.57,5.57,0,0,0,1.66-.75,9.76,9.76,0,0,0,2.8-3,17.78,17.78,0,0,0,1.86-4.11,25.73,25.73,0,0,0,1-9.23L32,5.15A30.05,30.05,0,0,1,30.58,16,22.28,22.28,0,0,1,28.2,21a14,14,0,0,1-4.13,4.28,9.64,9.64,0,0,1-2.95,1.28,8.49,8.49,0,0,1-3.33.15,8.72,8.72,0,0,1-3.12-1.12,8.38,8.38,0,0,1-2.47-2.2,7.93,7.93,0,0,1-.87-1.4,10.08,10.08,0,0,1-.6-1.45,11.64,11.64,0,0,1-.55-3,11.16,11.16,0,0,1,0-1.53,10.23,10.23,0,0,1,.23-1.54,8.7,8.7,0,0,1,.49-1.56,5.89,5.89,0,0,1,1-1.62,4.91,4.91,0,0,1,3.83-1.68,4.64,4.64,0,0,1,2.13.6,4.59,4.59,0,0,1,1.64,1.56,5.2,5.2,0,0,1,.7,1.93,6.12,6.12,0,0,1,.08,1,6.71,6.71,0,0,1-.07.91,8.43,8.43,0,0,1-.4,1.61c-.08.24-.17.47-.27.7s-.19.45-.29.67a14.73,14.73,0,0,1-3.47,4.72,11.93,11.93,0,0,1-5.37,2.84,10.09,10.09,0,0,1-3.17.23,8.12,8.12,0,0,1-3.27-1A7.5,7.5,0,0,1,1.41,23,8.2,8.2,0,0,1,.15,19.82a10.71,10.71,0,0,1-.06-3.19,14.37,14.37,0,0,1,.69-2.91,17,17,0,0,1,1.16-2.66A15.4,15.4,0,0,1,3.58,8.58Z"/></svg>