<svg width="24" height="24" viewBox="0 0 24 24" fill="none" xmlns="http://www.w3.org/2000/svg">
<mask id="path-1-inside-1_2469_11200" fill="white">
<path fill-rule="evenodd" clip-rule="evenodd" d="M12.0009 1.5C7.82147 1.5 4.43335 4.88812 4.43335 9.06757V13.8456C4.43335 14.1345 4.34992 14.4172 4.19308 14.6599L2.6861 16.9912C2.04093 17.9893 2.75737 19.3055 3.94582 19.3055H20.056C21.2445 19.3055 21.9609 17.9893 21.3157 16.9912L19.8088 14.6599C19.6519 14.4172 19.5685 14.1345 19.5685 13.8456V9.06757C19.5685 4.88811 16.1804 1.5 12.0009 1.5Z"/>
</mask>
<path d="M19.8088 14.6599L18.549 15.4742L19.8088 14.6599ZM21.3157 16.9912L22.5755 16.1769L21.3157 16.9912ZM2.6861 16.9912L1.42637 16.1769L2.6861 16.9912ZM4.19308 14.6599L5.45281 15.4742L4.19308 14.6599ZM5.93335 9.06757C5.93335 5.71654 8.6499 3 12.0009 3V0C6.99304 0 2.93335 4.05969 2.93335 9.06757H5.93335ZM5.93335 13.8456V9.06757H2.93335V13.8456H5.93335ZM3.94582 17.8055L5.45281 15.4742L2.93335 13.8456L1.42637 16.1769L3.94582 17.8055ZM20.056 17.8055H3.94582V20.8055H20.056V17.8055ZM18.549 15.4742L20.056 17.8055L22.5755 16.1769L21.0685 13.8456L18.549 15.4742ZM18.0685 9.06757V13.8456H21.0685V9.06757H18.0685ZM12.0009 3C15.3519 3 18.0685 5.71654 18.0685 9.06757H21.0685C21.0685 4.05969 17.0088 0 12.0009 0V3ZM21.0685 13.8456H18.0685C18.0685 14.4234 18.2354 14.9889 18.549 15.4742L21.0685 13.8456ZM20.056 20.8055C22.4329 20.8055 23.8658 18.173 22.5755 16.1769L20.056 17.8055V20.8055ZM1.42637 16.1769C0.136035 18.173 1.56892 20.8055 3.94582 20.8055V17.8055H3.94582L1.42637 16.1769ZM2.93335 13.8456H2.93335L5.45281 15.4742C5.76649 14.9889 5.93335 14.4234 5.93335 13.8456H2.93335Z" fill="#2C2F32" mask="url(#path-1-inside-1_2469_11200)"/>
<path d="M9 22H15" stroke="#2C2F32" stroke-width="1.5" stroke-linecap="round"/>
</svg>
