<svg width="14" height="14" viewBox="0 0 14 14" fill="none" xmlns="http://www.w3.org/2000/svg">
<path d="M9.7452 0.64154C10.1382 0.248414 10.6661 0.0194862 11.2217 0.00118774C11.7773 -0.0171107 12.319 0.176589 12.7371 0.543004L12.8422 0.64154L13.3582 1.15758C13.7511 1.55058 13.9799 2.07827 13.9982 2.63369C14.0165 3.18911 13.823 3.73072 13.4568 4.14872L13.3582 4.25382L5.17456 12.4382C5.05885 12.5539 4.91868 12.6422 4.76435 12.6966L4.64611 12.7309L1.39513 13.4812C1.28124 13.5076 1.16269 13.5062 1.04945 13.4772C0.936212 13.4482 0.831579 13.3925 0.744339 13.3147C0.6571 13.2369 0.589801 13.1393 0.548093 13.0301C0.506385 12.9209 0.491485 12.8033 0.504646 12.6871L0.519244 12.6046L1.26885 9.35292C1.30588 9.19343 1.37822 9.04427 1.48052 8.91644L1.56154 8.8252L9.7452 0.64154ZM9.22916 3.22174L2.66734 9.78356L2.20313 11.7966L4.2162 11.3317L10.778 4.76986L9.22916 3.22174ZM11.8101 1.67362C11.6844 1.54795 11.5172 1.47245 11.3398 1.4613C11.1624 1.45015 10.9871 1.5041 10.8466 1.61304L10.778 1.67362L10.2612 2.18966L11.8101 3.73778L12.3261 3.22174C12.4518 3.09606 12.5273 2.92884 12.5385 2.75145C12.5496 2.57407 12.4957 2.39871 12.3867 2.25827L12.3261 2.18966L11.8101 1.67362Z" fill="#6272FF"/>
</svg>
