<svg width="10" height="14" viewBox="0 0 10 14" fill="none" xmlns="http://www.w3.org/2000/svg">
<path fill-rule="evenodd" clip-rule="evenodd" d="M0.3675 12.7581C0.612083 13.0027 0.90625 13.125 1.25 13.125H8.75C9.09417 13.1254 9.38854 13.0031 9.63312 12.7581C9.87771 12.5131 10 12.2187 10 11.875V5.625C10.0004 5.28167 9.87812 4.9875 9.63312 4.7425C9.38812 4.4975 9.09375 4.375 8.75 4.375H8.125V3.125C8.12542 2.26083 7.82083 1.52396 7.21125 0.914375C6.60167 0.304792 5.86458 0 5 0C4.13583 0.000416667 3.39896 0.305208 2.78937 0.914375C2.17979 1.52354 1.875 2.26042 1.875 3.125V4.375H1.25C0.906667 4.37542 0.6125 4.49792 0.3675 4.7425C0.1225 4.98708 0 5.28125 0 5.625V11.875C0.000416667 12.2192 0.122917 12.5135 0.3675 12.7581ZM6.2493 4.375H3.125V3.125C3.125 2.60417 3.30729 2.16146 3.67187 1.79687C4.03646 1.43229 4.47917 1.25 5 1.25C5.52083 1.25 5.96354 1.43229 6.32812 1.79687C6.69271 2.16146 6.875 2.60417 6.875 3.125V3.12517H8.1243V4.37517H6.2493V4.375Z" fill="#959595"/>
</svg>
