<svg width="10" height="14" viewBox="0 0 10 14" fill="none" xmlns="http://www.w3.org/2000/svg">
<path d="M1.25 13.125C0.90625 13.125 0.612083 13.0027 0.3675 12.7581C0.122917 12.5135 0.000416667 12.2192 0 11.875V5.625C0 5.28125 0.1225 4.98708 0.3675 4.7425C0.6125 4.49792 0.906667 4.37542 1.25 4.375H1.875V3.125C1.875 2.26042 2.17979 1.52354 2.78937 0.914375C3.39896 0.305208 4.13583 0.000416667 5 0C5.86458 0 6.60167 0.304792 7.21125 0.914375C7.82083 1.52396 8.12542 2.26083 8.125 3.125V4.375H8.75C9.09375 4.375 9.38812 4.4975 9.63312 4.7425C9.87812 4.9875 10.0004 5.28167 10 5.625V11.875C10 12.2187 9.87771 12.5131 9.63312 12.7581C9.38854 13.0031 9.09417 13.1254 8.75 13.125H1.25ZM3.125 4.375H6.875V3.125C6.875 2.60417 6.69271 2.16146 6.32812 1.79687C5.96354 1.43229 5.52083 1.25 5 1.25C4.47917 1.25 4.03646 1.43229 3.67187 1.79687C3.30729 2.16146 3.125 2.60417 3.125 3.125V4.375Z" fill="#6A63F5"/>
</svg>
