<svg width="122" height="90" viewBox="0 0 122 90" fill="none" xmlns="http://www.w3.org/2000/svg">
<g filter="url(#filter0_b_2850_23357)">
<path fill-rule="evenodd" clip-rule="evenodd" d="M42.5244 57.6188C55.0516 59.086 66.0545 49.2966 66.0545 36.6837C66.0545 25.0425 56.6174 15.6055 44.9762 15.6055L21.7462 15.6055C10.105 15.6055 0.667969 25.0425 0.667969 36.6837C0.667969 49.2966 11.6708 59.086 24.1981 57.6188L28.2255 57.1471L31.5572 64.2C32.2788 65.7277 34.4523 65.7277 35.1739 64.2L38.5051 57.1481L42.5244 57.6188Z" fill="url(#paint0_radial_2850_23357)" fill-opacity="0.6"/>
</g>
<g filter="url(#filter1_d_2850_23357)">
<rect x="15.5879" y="30.5078" width="35.9318" height="4.7457" rx="2" fill="url(#paint1_linear_2850_23357)" shape-rendering="crispEdges"/>
</g>
<g filter="url(#filter2_d_2850_23357)">
<rect x="15.5879" y="38.6465" width="18.9828" height="4.7457" rx="2" fill="url(#paint2_linear_2850_23357)" shape-rendering="crispEdges"/>
</g>
<g filter="url(#filter3_d_2850_23357)">
<rect x="37.9629" y="38.6465" width="4.74571" height="4.7457" rx="2" fill="url(#paint3_linear_2850_23357)" shape-rendering="crispEdges"/>
</g>
<mask id="path-5-inside-1_2850_23357" fill="white">
<path fill-rule="evenodd" clip-rule="evenodd" d="M94.2526 48.3532C108.67 50.0417 121.333 38.7751 121.333 24.2589C121.333 10.8611 110.472 4.53412e-06 97.0745 3.36285e-06L70.339 0C56.9412 0 46.0801 10.8611 46.0801 24.2589C46.0801 38.7751 58.7432 50.0417 73.1608 48.3532L77.7899 47.811L81.8986 56.509C82.6202 58.0366 84.7937 58.0366 85.5154 56.509L89.6241 47.8111L94.2526 48.3532Z"/>
</mask>
<path fill-rule="evenodd" clip-rule="evenodd" d="M94.2526 48.3532C108.67 50.0417 121.333 38.7751 121.333 24.2589C121.333 10.8611 110.472 4.53412e-06 97.0745 3.36285e-06L70.339 0C56.9412 0 46.0801 10.8611 46.0801 24.2589C46.0801 38.7751 58.7432 50.0417 73.1608 48.3532L77.7899 47.811L81.8986 56.509C82.6202 58.0366 84.7937 58.0366 85.5154 56.509L89.6241 47.8111L94.2526 48.3532Z" fill="url(#paint4_radial_2850_23357)" fill-opacity="0.7"/>
<path d="M94.2526 48.3532L94.1363 49.3464L94.2526 48.3532ZM97.0745 3.36285e-06V1V3.36285e-06ZM70.339 0V-1V0ZM73.1608 48.3532L73.0445 47.36L73.1608 48.3532ZM77.7899 47.811L78.6941 47.3839L78.3872 46.7342L77.6736 46.8178L77.7899 47.811ZM81.8986 56.509L80.9944 56.9361L81.8986 56.509ZM85.5154 56.509L84.6112 56.0819L85.5154 56.509ZM89.6241 47.8111L89.7404 46.8179L89.0268 46.7343L88.7199 47.384L89.6241 47.8111ZM120.333 24.2589C120.333 38.1767 108.192 48.9789 94.369 47.36L94.1363 49.3464C109.148 51.1045 122.333 39.3735 122.333 24.2589H120.333ZM97.0745 1C109.92 1 120.333 11.4134 120.333 24.2589H122.333C122.333 10.3088 111.025 -0.999995 97.0745 -0.999997V1ZM70.339 1L97.0745 1V-0.999997L70.339 -1V1ZM47.0801 24.2589C47.0801 11.4134 57.4935 1 70.339 1V-1C56.3889 -1 45.0801 10.3088 45.0801 24.2589H47.0801ZM73.0445 47.36C59.2212 48.9789 47.0801 38.1767 47.0801 24.2589H45.0801C45.0801 39.3735 58.2652 51.1045 73.2772 49.3464L73.0445 47.36ZM77.6736 46.8178L73.0445 47.36L73.2772 49.3464L77.9062 48.8042L77.6736 46.8178ZM82.8028 56.0819L78.6941 47.3839L76.8857 48.2382L80.9944 56.9361L82.8028 56.0819ZM84.6112 56.0819C84.2504 56.8457 83.1636 56.8457 82.8028 56.0819L80.9944 56.9361C82.0769 59.2276 85.3371 59.2276 86.4196 56.9361L84.6112 56.0819ZM88.7199 47.384L84.6112 56.0819L86.4196 56.9361L90.5283 48.2382L88.7199 47.384ZM94.369 47.36L89.7404 46.8179L89.5077 48.8043L94.1363 49.3464L94.369 47.36Z" fill="url(#paint5_linear_2850_23357)" mask="url(#path-5-inside-1_2850_23357)"/>
<g filter="url(#filter4_d_2850_23357)">
<rect x="61.6836" y="22.3691" width="5.02903" height="5.02903" rx="2.51451" fill="white"/>
<rect x="71.4551" y="22.3691" width="5.02903" height="5.02903" rx="2.51451" fill="white"/>
<rect x="81.2363" y="22.3691" width="5.02903" height="5.02903" rx="2.51451" fill="white"/>
<rect x="91.0078" y="22.3691" width="5.02903" height="5.02903" rx="2.51451" fill="white"/>
<rect x="100.781" y="22.3691" width="5.02903" height="5.02903" rx="2.51451" fill="white"/>
</g>
<g filter="url(#filter5_f_2850_23357)">
<path d="M61.6811 80.0004C80.4024 80.0004 95.579 79.6969 95.579 79.3225C95.579 78.9481 80.4024 78.6445 61.6811 78.6445C42.9598 78.6445 27.7832 78.9481 27.7832 79.3225C27.7832 79.6969 42.9598 80.0004 61.6811 80.0004Z" fill="#7191FF" fill-opacity="0.3"/>
</g>
<g style="mix-blend-mode:multiply" opacity="0.4">
<g filter="url(#filter6_b_2850_23357)">
<path fill-rule="evenodd" clip-rule="evenodd" d="M42.5244 57.6188C55.0516 59.086 66.0545 49.2966 66.0545 36.6837C66.0545 25.0425 56.6174 15.6055 44.9762 15.6055L21.7462 15.6055C10.105 15.6055 0.667969 25.0425 0.667969 36.6837C0.667969 49.2966 11.6708 59.086 24.1981 57.6188L28.2255 57.1471L31.5572 64.2C32.2788 65.7277 34.4523 65.7277 35.1739 64.2L38.5051 57.1481L42.5244 57.6188Z" fill="url(#paint6_radial_2850_23357)" fill-opacity="0.6"/>
</g>
<g filter="url(#filter7_d_2850_23357)">
<rect x="15.5879" y="30.5078" width="35.9318" height="4.7457" rx="2" fill="url(#paint7_linear_2850_23357)" shape-rendering="crispEdges"/>
</g>
<g filter="url(#filter8_d_2850_23357)">
<rect x="15.5879" y="38.6465" width="18.9828" height="4.7457" rx="2" fill="url(#paint8_linear_2850_23357)" shape-rendering="crispEdges"/>
</g>
<g filter="url(#filter9_d_2850_23357)">
<rect x="37.9629" y="38.6465" width="4.74571" height="4.7457" rx="2" fill="url(#paint9_linear_2850_23357)" shape-rendering="crispEdges"/>
</g>
<mask id="path-17-inside-2_2850_23357" fill="white">
<path fill-rule="evenodd" clip-rule="evenodd" d="M94.2526 48.3532C108.67 50.0417 121.333 38.7751 121.333 24.2589C121.333 10.8611 110.472 4.53412e-06 97.0745 3.36285e-06L70.339 0C56.9412 0 46.0801 10.8611 46.0801 24.2589C46.0801 38.7751 58.7432 50.0417 73.1608 48.3532L77.7899 47.811L81.8986 56.509C82.6202 58.0366 84.7937 58.0366 85.5154 56.509L89.6241 47.8111L94.2526 48.3532Z"/>
</mask>
<path fill-rule="evenodd" clip-rule="evenodd" d="M94.2526 48.3532C108.67 50.0417 121.333 38.7751 121.333 24.2589C121.333 10.8611 110.472 4.53412e-06 97.0745 3.36285e-06L70.339 0C56.9412 0 46.0801 10.8611 46.0801 24.2589C46.0801 38.7751 58.7432 50.0417 73.1608 48.3532L77.7899 47.811L81.8986 56.509C82.6202 58.0366 84.7937 58.0366 85.5154 56.509L89.6241 47.8111L94.2526 48.3532Z" fill="url(#paint10_radial_2850_23357)" fill-opacity="0.7"/>
<path d="M94.2526 48.3532L94.1363 49.3464L94.2526 48.3532ZM97.0745 3.36285e-06V1V3.36285e-06ZM70.339 0V-1V0ZM73.1608 48.3532L73.0445 47.36L73.1608 48.3532ZM77.7899 47.811L78.6941 47.3839L78.3872 46.7342L77.6736 46.8178L77.7899 47.811ZM81.8986 56.509L80.9944 56.9361L81.8986 56.509ZM85.5154 56.509L84.6112 56.0819L85.5154 56.509ZM89.6241 47.8111L89.7404 46.8179L89.0268 46.7343L88.7199 47.384L89.6241 47.8111ZM120.333 24.2589C120.333 38.1767 108.192 48.9789 94.369 47.36L94.1363 49.3464C109.148 51.1045 122.333 39.3735 122.333 24.2589H120.333ZM97.0745 1C109.92 1 120.333 11.4134 120.333 24.2589H122.333C122.333 10.3088 111.025 -0.999995 97.0745 -0.999997V1ZM70.339 1L97.0745 1V-0.999997L70.339 -1V1ZM47.0801 24.2589C47.0801 11.4134 57.4935 1 70.339 1V-1C56.3889 -1 45.0801 10.3088 45.0801 24.2589H47.0801ZM73.0445 47.36C59.2212 48.9789 47.0801 38.1767 47.0801 24.2589H45.0801C45.0801 39.3735 58.2652 51.1045 73.2772 49.3464L73.0445 47.36ZM77.6736 46.8178L73.0445 47.36L73.2772 49.3464L77.9062 48.8042L77.6736 46.8178ZM82.8028 56.0819L78.6941 47.3839L76.8857 48.2382L80.9944 56.9361L82.8028 56.0819ZM84.6112 56.0819C84.2504 56.8457 83.1636 56.8457 82.8028 56.0819L80.9944 56.9361C82.0769 59.2276 85.3371 59.2276 86.4196 56.9361L84.6112 56.0819ZM88.7199 47.384L84.6112 56.0819L86.4196 56.9361L90.5283 48.2382L88.7199 47.384ZM94.369 47.36L89.7404 46.8179L89.5077 48.8043L94.1363 49.3464L94.369 47.36Z" fill="url(#paint11_linear_2850_23357)" mask="url(#path-17-inside-2_2850_23357)"/>
<g filter="url(#filter10_d_2850_23357)">
<rect x="61.6836" y="22.3691" width="5.02903" height="5.02903" rx="2.51451" fill="white"/>
<rect x="71.4551" y="22.3691" width="5.02903" height="5.02903" rx="2.51451" fill="white"/>
<rect x="81.2363" y="22.3691" width="5.02903" height="5.02903" rx="2.51451" fill="white"/>
<rect x="91.0078" y="22.3691" width="5.02903" height="5.02903" rx="2.51451" fill="white"/>
<rect x="100.781" y="22.3691" width="5.02903" height="5.02903" rx="2.51451" fill="white"/>
</g>
<g style="mix-blend-mode:multiply" opacity="0.5">
<mask id="path-24-inside-3_2850_23357" fill="white">
<path fill-rule="evenodd" clip-rule="evenodd" d="M94.2526 48.3532C108.67 50.0417 121.333 38.7751 121.333 24.2589C121.333 10.8611 110.472 4.53412e-06 97.0745 3.36285e-06L70.339 0C56.9412 0 46.0801 10.8611 46.0801 24.2589C46.0801 38.7751 58.7432 50.0417 73.1608 48.3532L77.7899 47.811L81.8986 56.509C82.6202 58.0366 84.7937 58.0366 85.5154 56.509L89.6241 47.8111L94.2526 48.3532Z"/>
</mask>
<path fill-rule="evenodd" clip-rule="evenodd" d="M94.2526 48.3532C108.67 50.0417 121.333 38.7751 121.333 24.2589C121.333 10.8611 110.472 4.53412e-06 97.0745 3.36285e-06L70.339 0C56.9412 0 46.0801 10.8611 46.0801 24.2589C46.0801 38.7751 58.7432 50.0417 73.1608 48.3532L77.7899 47.811L81.8986 56.509C82.6202 58.0366 84.7937 58.0366 85.5154 56.509L89.6241 47.8111L94.2526 48.3532Z" fill="url(#paint12_radial_2850_23357)" fill-opacity="0.7"/>
<path d="M94.2526 48.3532L94.1363 49.3464L94.2526 48.3532ZM97.0745 3.36285e-06V1V3.36285e-06ZM70.339 0V-1V0ZM73.1608 48.3532L73.0445 47.36L73.1608 48.3532ZM77.7899 47.811L78.6941 47.3839L78.3872 46.7342L77.6736 46.8178L77.7899 47.811ZM81.8986 56.509L80.9944 56.9361L81.8986 56.509ZM85.5154 56.509L84.6112 56.0819L85.5154 56.509ZM89.6241 47.8111L89.7404 46.8179L89.0268 46.7343L88.7199 47.384L89.6241 47.8111ZM120.333 24.2589C120.333 38.1767 108.192 48.9789 94.369 47.36L94.1363 49.3464C109.148 51.1045 122.333 39.3735 122.333 24.2589H120.333ZM97.0745 1C109.92 1 120.333 11.4134 120.333 24.2589H122.333C122.333 10.3088 111.025 -0.999995 97.0745 -0.999997V1ZM70.339 1L97.0745 1V-0.999997L70.339 -1V1ZM47.0801 24.2589C47.0801 11.4134 57.4935 1 70.339 1V-1C56.3889 -1 45.0801 10.3088 45.0801 24.2589H47.0801ZM73.0445 47.36C59.2212 48.9789 47.0801 38.1767 47.0801 24.2589H45.0801C45.0801 39.3735 58.2652 51.1045 73.2772 49.3464L73.0445 47.36ZM77.6736 46.8178L73.0445 47.36L73.2772 49.3464L77.9062 48.8042L77.6736 46.8178ZM82.8028 56.0819L78.6941 47.3839L76.8857 48.2382L80.9944 56.9361L82.8028 56.0819ZM84.6112 56.0819C84.2504 56.8457 83.1636 56.8457 82.8028 56.0819L80.9944 56.9361C82.0769 59.2276 85.3371 59.2276 86.4196 56.9361L84.6112 56.0819ZM88.7199 47.384L84.6112 56.0819L86.4196 56.9361L90.5283 48.2382L88.7199 47.384ZM94.369 47.36L89.7404 46.8179L89.5077 48.8043L94.1363 49.3464L94.369 47.36Z" fill="url(#paint13_linear_2850_23357)" mask="url(#path-24-inside-3_2850_23357)"/>
<g filter="url(#filter11_d_2850_23357)">
<rect x="61.6836" y="22.3691" width="5.02903" height="5.02903" rx="2.51451" fill="white"/>
<rect x="71.4551" y="22.3691" width="5.02903" height="5.02903" rx="2.51451" fill="white"/>
<rect x="81.2363" y="22.3691" width="5.02903" height="5.02903" rx="2.51451" fill="white"/>
<rect x="91.0078" y="22.3691" width="5.02903" height="5.02903" rx="2.51451" fill="white"/>
<rect x="100.781" y="22.3691" width="5.02903" height="5.02903" rx="2.51451" fill="white"/>
</g>
</g>
<g filter="url(#filter12_f_2850_23357)">
<path d="M61.6811 80.0004C80.4024 80.0004 95.579 79.6969 95.579 79.3225C95.579 78.9481 80.4024 78.6445 61.6811 78.6445C42.9598 78.6445 27.7832 78.9481 27.7832 79.3225C27.7832 79.6969 42.9598 80.0004 61.6811 80.0004Z" fill="#7191FF" fill-opacity="0.3"/>
</g>
</g>
<defs>
<filter id="filter0_b_2850_23357" x="-4.33203" y="10.6055" width="75.3867" height="59.7402" filterUnits="userSpaceOnUse" color-interpolation-filters="sRGB">
<feFlood flood-opacity="0" result="BackgroundImageFix"/>
<feGaussianBlur in="BackgroundImageFix" stdDeviation="2.5"/>
<feComposite in2="SourceAlpha" operator="in" result="effect1_backgroundBlur_2850_23357"/>
<feBlend mode="normal" in="SourceGraphic" in2="effect1_backgroundBlur_2850_23357" result="shape"/>
</filter>
<filter id="filter1_d_2850_23357" x="7.58789" y="30.5078" width="43.9316" height="12.7461" filterUnits="userSpaceOnUse" color-interpolation-filters="sRGB">
<feFlood flood-opacity="0" result="BackgroundImageFix"/>
<feColorMatrix in="SourceAlpha" type="matrix" values="0 0 0 0 0 0 0 0 0 0 0 0 0 0 0 0 0 0 127 0" result="hardAlpha"/>
<feOffset dx="-4" dy="4"/>
<feGaussianBlur stdDeviation="2"/>
<feComposite in2="hardAlpha" operator="out"/>
<feColorMatrix type="matrix" values="0 0 0 0 0.823529 0 0 0 0 0.862745 0 0 0 0 1 0 0 0 0.2 0"/>
<feBlend mode="normal" in2="BackgroundImageFix" result="effect1_dropShadow_2850_23357"/>
<feBlend mode="normal" in="SourceGraphic" in2="effect1_dropShadow_2850_23357" result="shape"/>
</filter>
<filter id="filter2_d_2850_23357" x="7.58789" y="38.6465" width="26.9824" height="12.7461" filterUnits="userSpaceOnUse" color-interpolation-filters="sRGB">
<feFlood flood-opacity="0" result="BackgroundImageFix"/>
<feColorMatrix in="SourceAlpha" type="matrix" values="0 0 0 0 0 0 0 0 0 0 0 0 0 0 0 0 0 0 127 0" result="hardAlpha"/>
<feOffset dx="-4" dy="4"/>
<feGaussianBlur stdDeviation="2"/>
<feComposite in2="hardAlpha" operator="out"/>
<feColorMatrix type="matrix" values="0 0 0 0 0.823529 0 0 0 0 0.862745 0 0 0 0 1 0 0 0 0.2 0"/>
<feBlend mode="normal" in2="BackgroundImageFix" result="effect1_dropShadow_2850_23357"/>
<feBlend mode="normal" in="SourceGraphic" in2="effect1_dropShadow_2850_23357" result="shape"/>
</filter>
<filter id="filter3_d_2850_23357" x="29.9629" y="38.6465" width="12.7461" height="12.7461" filterUnits="userSpaceOnUse" color-interpolation-filters="sRGB">
<feFlood flood-opacity="0" result="BackgroundImageFix"/>
<feColorMatrix in="SourceAlpha" type="matrix" values="0 0 0 0 0 0 0 0 0 0 0 0 0 0 0 0 0 0 127 0" result="hardAlpha"/>
<feOffset dx="-4" dy="4"/>
<feGaussianBlur stdDeviation="2"/>
<feComposite in2="hardAlpha" operator="out"/>
<feColorMatrix type="matrix" values="0 0 0 0 0.823529 0 0 0 0 0.862745 0 0 0 0 1 0 0 0 0.2 0"/>
<feBlend mode="normal" in2="BackgroundImageFix" result="effect1_dropShadow_2850_23357"/>
<feBlend mode="normal" in="SourceGraphic" in2="effect1_dropShadow_2850_23357" result="shape"/>
</filter>
<filter id="filter4_d_2850_23357" x="58.6836" y="20.3691" width="54.127" height="15.0293" filterUnits="userSpaceOnUse" color-interpolation-filters="sRGB">
<feFlood flood-opacity="0" result="BackgroundImageFix"/>
<feColorMatrix in="SourceAlpha" type="matrix" values="0 0 0 0 0 0 0 0 0 0 0 0 0 0 0 0 0 0 127 0" result="hardAlpha"/>
<feOffset dx="2" dy="3"/>
<feGaussianBlur stdDeviation="2.5"/>
<feComposite in2="hardAlpha" operator="out"/>
<feColorMatrix type="matrix" values="0 0 0 0 0.830272 0 0 0 0 0.86799 0 0 0 0 1 0 0 0 0.6 0"/>
<feBlend mode="normal" in2="BackgroundImageFix" result="effect1_dropShadow_2850_23357"/>
<feBlend mode="normal" in="SourceGraphic" in2="effect1_dropShadow_2850_23357" result="shape"/>
</filter>
<filter id="filter5_f_2850_23357" x="17.7832" y="68.6445" width="87.7949" height="21.3555" filterUnits="userSpaceOnUse" color-interpolation-filters="sRGB">
<feFlood flood-opacity="0" result="BackgroundImageFix"/>
<feBlend mode="normal" in="SourceGraphic" in2="BackgroundImageFix" result="shape"/>
<feGaussianBlur stdDeviation="5" result="effect1_foregroundBlur_2850_23357"/>
</filter>
<filter id="filter6_b_2850_23357" x="-4.33203" y="10.6055" width="75.3867" height="59.7402" filterUnits="userSpaceOnUse" color-interpolation-filters="sRGB">
<feFlood flood-opacity="0" result="BackgroundImageFix"/>
<feGaussianBlur in="BackgroundImageFix" stdDeviation="2.5"/>
<feComposite in2="SourceAlpha" operator="in" result="effect1_backgroundBlur_2850_23357"/>
<feBlend mode="normal" in="SourceGraphic" in2="effect1_backgroundBlur_2850_23357" result="shape"/>
</filter>
<filter id="filter7_d_2850_23357" x="7.58789" y="30.5078" width="43.9316" height="12.7461" filterUnits="userSpaceOnUse" color-interpolation-filters="sRGB">
<feFlood flood-opacity="0" result="BackgroundImageFix"/>
<feColorMatrix in="SourceAlpha" type="matrix" values="0 0 0 0 0 0 0 0 0 0 0 0 0 0 0 0 0 0 127 0" result="hardAlpha"/>
<feOffset dx="-4" dy="4"/>
<feGaussianBlur stdDeviation="2"/>
<feComposite in2="hardAlpha" operator="out"/>
<feColorMatrix type="matrix" values="0 0 0 0 0.823529 0 0 0 0 0.862745 0 0 0 0 1 0 0 0 0.2 0"/>
<feBlend mode="normal" in2="BackgroundImageFix" result="effect1_dropShadow_2850_23357"/>
<feBlend mode="normal" in="SourceGraphic" in2="effect1_dropShadow_2850_23357" result="shape"/>
</filter>
<filter id="filter8_d_2850_23357" x="7.58789" y="38.6465" width="26.9824" height="12.7461" filterUnits="userSpaceOnUse" color-interpolation-filters="sRGB">
<feFlood flood-opacity="0" result="BackgroundImageFix"/>
<feColorMatrix in="SourceAlpha" type="matrix" values="0 0 0 0 0 0 0 0 0 0 0 0 0 0 0 0 0 0 127 0" result="hardAlpha"/>
<feOffset dx="-4" dy="4"/>
<feGaussianBlur stdDeviation="2"/>
<feComposite in2="hardAlpha" operator="out"/>
<feColorMatrix type="matrix" values="0 0 0 0 0.823529 0 0 0 0 0.862745 0 0 0 0 1 0 0 0 0.2 0"/>
<feBlend mode="normal" in2="BackgroundImageFix" result="effect1_dropShadow_2850_23357"/>
<feBlend mode="normal" in="SourceGraphic" in2="effect1_dropShadow_2850_23357" result="shape"/>
</filter>
<filter id="filter9_d_2850_23357" x="29.9629" y="38.6465" width="12.7461" height="12.7461" filterUnits="userSpaceOnUse" color-interpolation-filters="sRGB">
<feFlood flood-opacity="0" result="BackgroundImageFix"/>
<feColorMatrix in="SourceAlpha" type="matrix" values="0 0 0 0 0 0 0 0 0 0 0 0 0 0 0 0 0 0 127 0" result="hardAlpha"/>
<feOffset dx="-4" dy="4"/>
<feGaussianBlur stdDeviation="2"/>
<feComposite in2="hardAlpha" operator="out"/>
<feColorMatrix type="matrix" values="0 0 0 0 0.823529 0 0 0 0 0.862745 0 0 0 0 1 0 0 0 0.2 0"/>
<feBlend mode="normal" in2="BackgroundImageFix" result="effect1_dropShadow_2850_23357"/>
<feBlend mode="normal" in="SourceGraphic" in2="effect1_dropShadow_2850_23357" result="shape"/>
</filter>
<filter id="filter10_d_2850_23357" x="58.6836" y="20.3691" width="54.127" height="15.0293" filterUnits="userSpaceOnUse" color-interpolation-filters="sRGB">
<feFlood flood-opacity="0" result="BackgroundImageFix"/>
<feColorMatrix in="SourceAlpha" type="matrix" values="0 0 0 0 0 0 0 0 0 0 0 0 0 0 0 0 0 0 127 0" result="hardAlpha"/>
<feOffset dx="2" dy="3"/>
<feGaussianBlur stdDeviation="2.5"/>
<feComposite in2="hardAlpha" operator="out"/>
<feColorMatrix type="matrix" values="0 0 0 0 0.830272 0 0 0 0 0.86799 0 0 0 0 1 0 0 0 0.6 0"/>
<feBlend mode="normal" in2="BackgroundImageFix" result="effect1_dropShadow_2850_23357"/>
<feBlend mode="normal" in="SourceGraphic" in2="effect1_dropShadow_2850_23357" result="shape"/>
</filter>
<filter id="filter11_d_2850_23357" x="58.6836" y="20.3691" width="54.127" height="15.0293" filterUnits="userSpaceOnUse" color-interpolation-filters="sRGB">
<feFlood flood-opacity="0" result="BackgroundImageFix"/>
<feColorMatrix in="SourceAlpha" type="matrix" values="0 0 0 0 0 0 0 0 0 0 0 0 0 0 0 0 0 0 127 0" result="hardAlpha"/>
<feOffset dx="2" dy="3"/>
<feGaussianBlur stdDeviation="2.5"/>
<feComposite in2="hardAlpha" operator="out"/>
<feColorMatrix type="matrix" values="0 0 0 0 0.830272 0 0 0 0 0.86799 0 0 0 0 1 0 0 0 0.6 0"/>
<feBlend mode="normal" in2="BackgroundImageFix" result="effect1_dropShadow_2850_23357"/>
<feBlend mode="normal" in="SourceGraphic" in2="effect1_dropShadow_2850_23357" result="shape"/>
</filter>
<filter id="filter12_f_2850_23357" x="17.7832" y="68.6445" width="87.7949" height="21.3555" filterUnits="userSpaceOnUse" color-interpolation-filters="sRGB">
<feFlood flood-opacity="0" result="BackgroundImageFix"/>
<feBlend mode="normal" in="SourceGraphic" in2="BackgroundImageFix" result="shape"/>
<feGaussianBlur stdDeviation="5" result="effect1_foregroundBlur_2850_23357"/>
</filter>
<radialGradient id="paint0_radial_2850_23357" cx="0" cy="0" r="1" gradientUnits="userSpaceOnUse" gradientTransform="translate(42.1972 48.4516) rotate(-144.539) scale(51.4479 74.6365)">
<stop stop-color="#DCE4FF"/>
<stop offset="1" stop-color="#F9FAFF"/>
<stop offset="1" stop-color="#EEF1FF"/>
</radialGradient>
<linearGradient id="paint1_linear_2850_23357" x1="15.5879" y1="32.8807" x2="51.5197" y2="32.8807" gradientUnits="userSpaceOnUse">
<stop stop-color="#D1DBFF"/>
<stop offset="1" stop-color="#C9D5FF" stop-opacity="0"/>
</linearGradient>
<linearGradient id="paint2_linear_2850_23357" x1="15.5879" y1="41.0193" x2="31.6178" y2="41.0193" gradientUnits="userSpaceOnUse">
<stop stop-color="#D1DBFF"/>
<stop offset="1" stop-color="#C9D5FF" stop-opacity="0.4"/>
</linearGradient>
<linearGradient id="paint3_linear_2850_23357" x1="37.9629" y1="41.0193" x2="41.9704" y2="41.0193" gradientUnits="userSpaceOnUse">
<stop stop-color="#D1DBFF"/>
<stop offset="1" stop-color="#C9D5FF" stop-opacity="0.6"/>
</linearGradient>
<radialGradient id="paint4_radial_2850_23357" cx="0" cy="0" r="1" gradientUnits="userSpaceOnUse" gradientTransform="translate(57.6054 6.01144) rotate(24.4749) scale(58.8464 85.1158)">
<stop stop-color="#A5B9FF"/>
<stop offset="1" stop-color="#E7EBFF"/>
</radialGradient>
<linearGradient id="paint5_linear_2850_23357" x1="83.7067" y1="0" x2="83.7067" y2="57.6547" gradientUnits="userSpaceOnUse">
<stop stop-color="#E6EBFF"/>
<stop offset="1" stop-color="white" stop-opacity="0.4"/>
</linearGradient>
<radialGradient id="paint6_radial_2850_23357" cx="0" cy="0" r="1" gradientUnits="userSpaceOnUse" gradientTransform="translate(42.1972 48.4516) rotate(-144.539) scale(51.4479 74.6365)">
<stop stop-color="#DCE4FF"/>
<stop offset="1" stop-color="#F9FAFF"/>
<stop offset="1" stop-color="#EEF1FF"/>
</radialGradient>
<linearGradient id="paint7_linear_2850_23357" x1="15.5879" y1="32.8807" x2="51.5197" y2="32.8807" gradientUnits="userSpaceOnUse">
<stop stop-color="#D1DBFF"/>
<stop offset="1" stop-color="#C9D5FF" stop-opacity="0"/>
</linearGradient>
<linearGradient id="paint8_linear_2850_23357" x1="15.5879" y1="41.0193" x2="31.6178" y2="41.0193" gradientUnits="userSpaceOnUse">
<stop stop-color="#D1DBFF"/>
<stop offset="1" stop-color="#C9D5FF" stop-opacity="0.4"/>
</linearGradient>
<linearGradient id="paint9_linear_2850_23357" x1="37.9629" y1="41.0193" x2="41.9704" y2="41.0193" gradientUnits="userSpaceOnUse">
<stop stop-color="#D1DBFF"/>
<stop offset="1" stop-color="#C9D5FF" stop-opacity="0.6"/>
</linearGradient>
<radialGradient id="paint10_radial_2850_23357" cx="0" cy="0" r="1" gradientUnits="userSpaceOnUse" gradientTransform="translate(57.6054 6.01144) rotate(24.4749) scale(58.8464 85.1158)">
<stop stop-color="#A5B9FF"/>
<stop offset="1" stop-color="#E7EBFF"/>
</radialGradient>
<linearGradient id="paint11_linear_2850_23357" x1="83.7067" y1="0" x2="83.7067" y2="57.6547" gradientUnits="userSpaceOnUse">
<stop stop-color="#E6EBFF"/>
<stop offset="1" stop-color="white" stop-opacity="0.4"/>
</linearGradient>
<radialGradient id="paint12_radial_2850_23357" cx="0" cy="0" r="1" gradientUnits="userSpaceOnUse" gradientTransform="translate(57.6054 6.01144) rotate(24.4749) scale(58.8464 85.1158)">
<stop stop-color="#A5B9FF"/>
<stop offset="1" stop-color="#E7EBFF"/>
</radialGradient>
<linearGradient id="paint13_linear_2850_23357" x1="83.7067" y1="0" x2="83.7067" y2="57.6547" gradientUnits="userSpaceOnUse">
<stop stop-color="#E6EBFF"/>
<stop offset="1" stop-color="white" stop-opacity="0.4"/>
</linearGradient>
</defs>
</svg>
