<svg width="108" height="33" viewBox="0 0 108 33" fill="none" xmlns="http://www.w3.org/2000/svg">
<path d="M0.538798 25.7267C0.212159 25.9814 0.153852 26.4527 0.408567 26.7793L4.55939 32.1022C4.8141 32.4289 5.28538 32.4872 5.61202 32.2324C5.93866 31.9777 5.99697 31.5065 5.74225 31.1798L2.05263 26.4484L6.7841 22.7587C7.11073 22.504 7.16904 22.0327 6.91433 21.7061C6.65961 21.3795 6.18833 21.3212 5.86169 21.5759L0.538798 25.7267ZM12.4487 28.0667L12.545 27.3229L12.4487 28.0667ZM39.3659 29.9199L39.3883 29.1703L39.3659 29.9199ZM69.8095 24.1717L69.3929 23.5481L69.8095 24.1717ZM77.5673 14.4238L76.8609 14.1719L77.5673 14.4238ZM76.4154 7.39813L75.9353 7.97435L76.4154 7.39813ZM58.1963 15.4917L58.9285 15.6541L58.1963 15.4917ZM62.4983 23.533L62.118 24.1794L62.4983 23.533ZM82.6922 25.7318L82.5359 24.9982L82.6922 25.7318ZM107.75 1C107.75 0.585786 107.414 0.25 107 0.25C106.586 0.25 106.25 0.585786 106.25 1H107.75ZM0.907913 27.0624C2.80761 27.2975 4.69707 27.608 6.60235 27.924C8.50288 28.2393 10.4203 28.5602 12.3523 28.8105L12.545 27.3229C10.6445 27.0767 8.75485 26.7606 6.84781 26.4443C4.94551 26.1287 3.02689 25.8132 1.09209 25.5738L0.907913 27.0624ZM12.3523 28.8105C21.2493 29.9629 30.3945 30.4021 39.3435 30.6696L39.3883 29.1703C30.452 28.9031 21.3665 28.4655 12.545 27.3229L12.3523 28.8105ZM39.3435 30.6696C49.6034 30.9763 61.4118 30.684 70.2261 24.7953L69.3929 23.5481C61.0244 29.1388 49.6823 29.478 39.3883 29.1703L39.3435 30.6696ZM70.2261 24.7953C73.9701 22.294 76.8454 18.6814 78.2737 14.6757L76.8609 14.1719C75.5476 17.8549 72.8861 21.2143 69.3929 23.5481L70.2261 24.7953ZM78.2737 14.6757C79.1485 12.2224 79.505 8.99599 76.8955 6.82191L75.9353 7.97435C77.7794 9.5107 77.6828 11.8668 76.8609 14.1719L78.2737 14.6757ZM76.8955 6.82191C73.3706 3.88521 68.791 4.49057 65.0699 6.48156C61.361 8.46609 58.2085 11.9717 57.4641 15.3294L58.9285 15.6541C59.5485 12.8576 62.3139 9.65741 65.7776 7.80414C69.2292 5.95735 73.077 5.59297 75.9353 7.97435L76.8955 6.82191ZM57.4641 15.3294C56.6191 19.1404 58.9339 22.3058 62.118 24.1794L62.8787 22.8866C59.9943 21.1893 58.2802 18.5781 58.9285 15.6541L57.4641 15.3294ZM62.118 24.1794C68.0416 27.665 76.3685 27.8456 82.8484 26.4653L82.5359 24.9982C76.2473 26.3378 68.3519 26.1072 62.8787 22.8866L62.118 24.1794ZM82.8484 26.4653C96.3941 23.5799 107.75 13.9504 107.75 1H106.25C106.25 12.9559 95.7146 22.191 82.5359 24.9982L82.8484 26.4653Z" fill="#D2D5DB"/>
</svg>
